<?xml version="1.0" encoding="utf-8"?>
<!-- Generator: Adobe Illustrator 25.0.1, SVG Export Plug-In . SVG Version: 6.00 Build 0)  -->
<svg version="1.1" xmlns="http://www.w3.org/2000/svg" xmlns:xlink="http://www.w3.org/1999/xlink" x="0px" y="0px"
	 viewBox="0 0 180 180" style="enable-background:new 0 0 180 180;" xml:space="preserve">
<style type="text/css">
	.st0{fill:#2C2322;}
	.st1{filter:url(#Adobe_OpacityMaskFilter);}
	.st2{fill:#FFFFFF;}
	.st3{mask:url(#SVGID_1_);}
	.st4{fill:#EEB058;}
	.st5{fill:#F9DD4E;}
	.st6{fill:#E6E6E6;}
	.st7{fill:#1A1A1A;}
	.st8{fill:#CCCCCC;}
	.st9{fill:none;stroke:#0000FF;stroke-miterlimit:10;}
</style>
<g id="Background">
	<g>
		<path class="st0" d="M90,155c30.33,0,55-24.67,55-55V28c0-1.65-1.35-3-3-3H38c-1.65,0-3,1.35-3,3v72v0.09
			C35.05,130.38,59.7,155,90,155z"/>
	</g>
	<defs>
		<filter id="Adobe_OpacityMaskFilter" filterUnits="userSpaceOnUse" x="-12" y="50.76" width="204" height="190.92">
			<feColorMatrix  type="matrix" values="1 0 0 0 0  0 1 0 0 0  0 0 1 0 0  0 0 0 1 0"/>
		</filter>
	</defs>
	<mask maskUnits="userSpaceOnUse" x="-12" y="50.76" width="204" height="190.92" id="SVGID_1_">
		<g class="st1">
			<path class="st2" d="M142,18H38c-5.52,0-10,4.48-10,10v72c0,0,0,0,0,0c0,34.24,27.76,62,62,62s62-27.76,62-62V28
				C152,22.48,147.52,18,142,18z"/>
		</g>
	</mask>
	<g class="st3">
		<path class="st4" d="M175.05,86.86l-79-34.82c-3.85-1.7-8.25-1.7-12.1,0l-79,34.82C-0.49,89.26-4,94.64-4,100.58v22.1
			c0,4.94,2.44,9.57,6.51,12.37c4.08,2.8,9.28,3.41,13.88,1.62l73.6-28.4l73.6,28.4c1.75,0.67,3.58,1.01,5.4,1.01
			c2.99,0,5.95-0.89,8.49-2.63c4.08-2.8,6.51-7.42,6.51-12.37v-22.1C184,94.64,180.49,89.26,175.05,86.86z"/>
		<path class="st5" d="M180.4,116.15l-79-54.82c-6.86-4.76-15.95-4.76-22.8,0l-79,54.82c-5.39,3.74-8.6,9.88-8.6,16.43v2.1
			c0,6.67,3.33,12.9,8.87,16.62c5.54,3.71,12.57,4.42,18.74,1.88L90,123.82l71.39,29.35c2.45,1.01,5.03,1.5,7.6,1.5
			c3.91,0,7.79-1.15,11.13-3.38c5.54-3.71,8.87-9.94,8.87-16.62v-2.1C189,126.03,185.79,119.89,180.4,116.15z"/>
		<path class="st2" d="M183.64,158.95l-79-84.82c-3.78-4.06-9.08-6.37-14.64-6.37s-10.85,2.31-14.64,6.37l-79,84.82
			c-3.45,3.7-5.36,8.57-5.36,13.63v2.1c0,7.67,4.38,14.66,11.29,18c6.9,3.34,15.11,2.44,21.12-2.32L90,137.7l66.59,52.67
			c3.6,2.85,7.99,4.31,12.41,4.31c2.96,0,5.94-0.66,8.71-2c6.9-3.34,11.29-10.33,11.29-18v-2.1
			C189,167.53,187.08,162.66,183.64,158.95z"/>
		<path class="st0" d="M187.79,203.31l-79-111.82c-4.31-6.1-11.32-9.73-18.79-9.73s-14.47,3.63-18.79,9.73l-79,111.82
			c-2.74,3.88-4.21,8.52-4.21,13.27v2.1c0,9.56,5.92,18.13,14.86,21.51c8.94,3.38,19.05,0.88,25.38-6.29L90,163.95l61.76,69.95
			c4.45,5.04,10.78,7.78,17.25,7.78c2.73,0,5.48-0.49,8.13-1.49c8.94-3.38,14.86-11.95,14.86-21.51v-2.1
			C192,211.83,190.53,207.2,187.79,203.31z"/>
	</g>
</g>
<g id="Content">
	<g>
		<g>
			<g>
				<path class="st2" d="M88.59,105.21c-0.57,0.57-0.74,1.43-0.43,2.17c0.31,0.74,1.04,1.23,1.84,1.23c1.09-0.03,1.97-0.9,1.99-1.99
					c0-0.81-0.49-1.53-1.23-1.84C90.02,104.47,89.16,104.64,88.59,105.21L88.59,105.21z M88.59,105.21"/>
				<path class="st2" d="M96.12,99.32L96.12,99.32c-1.18-3.53-3.29-6.67-6.11-9.1l-0.01,0c-0.4,0.34-0.79,0.7-1.16,1.07
					c-2.25,2.25-3.95,5-4.96,8.03h0l0,0c0,0,2.74,0.84,6.13,0.84C93.39,100.17,96.13,99.32,96.12,99.32
					C96.13,99.32,96.12,99.32,96.12,99.32z"/>
			</g>
			<path class="st2" d="M96.95,120.58l6.31,0c-0.28-3.12-2.51-5.71-5.56-6.43L96.95,120.58z M96.95,120.58"/>
			<path class="st2" d="M78.84,116.07c-1.21,1.21-1.96,2.8-2.11,4.5l6.31,0l-0.75-6.44C80.99,114.45,79.79,115.12,78.84,116.07
				L78.84,116.07z M78.84,116.07"/>
			<path class="st2" d="M90,123.8c-1.26,0-2.44-0.11-3.44-0.26l0,2.23c0,1.1,0.89,1.99,1.99,1.99l2.89,0c1.1,0,1.99-0.89,1.99-1.99
				v-2.23C92.44,123.69,91.26,123.8,90,123.8z"/>
			<path class="st5" d="M93.32,135.2c0.01-1.19-0.63-2.29-1.66-2.89c-1.03-0.6-2.3-0.6-3.33,0c-1.03,0.6-1.66,1.7-1.66,2.89
				c0,1.29,1.86,4.68,3.32,7.02C91.47,139.88,93.32,136.49,93.32,135.2L93.32,135.2z M93.32,135.2"/>
			<path class="st2" d="M98.46,131.67c-0.19,0.19-0.48,0.25-0.72,0.14c-0.25-0.1-0.41-0.35-0.41-0.61l0-3.99
				c0.01-0.36,0.3-0.65,0.66-0.65c0.36,0,0.66,0.29,0.66,0.65v3.99C98.65,131.38,98.58,131.55,98.46,131.67L98.46,131.67z
				 M98.46,131.67"/>
			<path class="st2" d="M102.69,128.38c-0.19,0.19-0.48,0.25-0.72,0.14c-0.25-0.1-0.41-0.35-0.41-0.61l0-3.99
				c0.01-0.36,0.3-0.65,0.66-0.65c0.36,0,0.66,0.29,0.66,0.65l0,3.99C102.88,128.09,102.81,128.26,102.69,128.38L102.69,128.38z
				 M102.69,128.38"/>
			<path class="st2" d="M98.46,134.99c-0.19,0.19-0.48,0.25-0.72,0.14c-0.25-0.1-0.41-0.35-0.41-0.61v-0.66
				c0-0.24,0.12-0.46,0.33-0.58c0.21-0.12,0.46-0.12,0.67,0c0.21,0.12,0.33,0.34,0.33,0.59l0,0.66
				C98.65,134.7,98.58,134.87,98.46,134.99L98.46,134.99z M98.46,134.99"/>
			<path class="st2" d="M82.01,132.14c-0.19,0.19-0.48,0.25-0.72,0.14c-0.25-0.1-0.41-0.35-0.41-0.61l0-3.99
				c0.01-0.36,0.3-0.65,0.66-0.65c0.36,0,0.66,0.29,0.66,0.65v3.99C82.21,131.85,82.14,132.02,82.01,132.14L82.01,132.14z
				 M82.01,132.14"/>
			<g>
				<path class="st2" d="M78.25,128.38c-0.19,0.19-0.48,0.25-0.72,0.14c-0.25-0.1-0.41-0.35-0.41-0.61l0-3.99
					c0.01-0.36,0.3-0.65,0.66-0.65c0.36,0,0.66,0.29,0.66,0.65v3.99C78.45,128.09,78.38,128.26,78.25,128.38L78.25,128.38z
					 M78.25,128.38"/>
				<path class="st2" d="M82.01,135.46c-0.19,0.19-0.48,0.25-0.72,0.14c-0.25-0.1-0.41-0.35-0.41-0.61v-0.66
					c0-0.24,0.12-0.46,0.33-0.58c0.21-0.12,0.46-0.12,0.67,0c0.21,0.12,0.33,0.35,0.33,0.59l0,0.66
					C82.21,135.17,82.14,135.34,82.01,135.46L82.01,135.46z M82.01,135.46"/>
			</g>
		</g>
		<path class="st2" d="M96.52,100.65l-13.04,0c-0.65,2.48-0.83,5.06-0.53,7.6l1.59,13.57c1.16,0.26,3.17,0.63,5.47,0.63
			c2.29,0,4.3-0.36,5.46-0.63l1.59-13.57C97.35,105.71,97.17,103.13,96.52,100.65z M90.67,118.85c0,0.37-0.3,0.67-0.66,0.67
			c-0.37,0-0.67-0.3-0.67-0.66l0-0.66c0.01-0.36,0.3-0.65,0.66-0.65c0.36,0,0.66,0.29,0.66,0.65l0,0L90.67,118.85z M90.67,115.53
			c-0.01,0.36-0.3,0.65-0.66,0.65c-0.36,0-0.66-0.29-0.66-0.65l0-2.66c0.01-0.36,0.3-0.65,0.66-0.65c0.36,0,0.66,0.29,0.66,0.65
			L90.67,115.53z M90.65,109.88c-1.55,0.31-3.11-0.52-3.72-1.99c-0.61-1.46-0.09-3.15,1.22-4.03c1.32-0.88,3.07-0.71,4.2,0.41
			c0.63,0.62,0.97,1.47,0.97,2.35l0,0C93.32,108.2,92.2,109.57,90.65,109.88z"/>
		<g>
			<path class="st6" d="M96.52,100.65l-6.53,0v2.65c0.86,0,1.71,0.33,2.36,0.97c0.62,0.62,0.97,1.47,0.97,2.35l0,0
				c0,1.59-1.12,2.95-2.68,3.26c-0.22,0.04-0.44,0.06-0.65,0.06v2.28c0,0,0,0,0.01,0c0.36,0,0.66,0.29,0.66,0.65l0,2.66
				c-0.01,0.36-0.3,0.65-0.66,0.65c0,0,0,0-0.01,0v1.35c0,0,0,0,0.01,0c0.36,0,0.66,0.29,0.66,0.65l0,0l0,0.66
				c0,0.37-0.3,0.67-0.66,0.67c0,0-0.01,0-0.01,0v2.93c0,0,0.01,0,0.01,0c2.29,0,4.3-0.36,5.46-0.63l1.59-13.57
				C97.35,105.71,97.17,103.13,96.52,100.65z"/>
			<path class="st4" d="M93.32,135.2c0.01-1.19-0.63-2.29-1.66-2.89c-0.52-0.3-1.09-0.45-1.67-0.45v10.35c0,0,0,0.01,0.01,0.01
				C91.47,139.88,93.32,136.49,93.32,135.2z"/>
			<path class="st6" d="M90,123.8c0,0-0.01,0.26-0.01,0.26v3.71l1.45,0c1.1,0,1.99-0.89,1.99-1.99v-2.23
				C92.44,123.69,91.26,123.8,90,123.8z"/>
			<path class="st6" d="M91.99,106.62c0-0.81-0.49-1.53-1.23-1.84c-0.25-0.1-0.51-0.15-0.77-0.15v3.98c0,0,0,0,0.01,0
				C91.09,108.59,91.97,107.71,91.99,106.62z"/>
			<path class="st6" d="M90,100.17c3.38,0,6.13-0.84,6.13-0.84s-0.01,0-0.01,0h0c-1.18-3.53-3.29-6.67-6.12-9.1l-0.01,0L90,100.17
				C90,100.17,90,100.17,90,100.17z"/>
			<path class="st6" d="M101.96,128.53c0.25,0.1,0.53,0.05,0.72-0.14c0.12-0.12,0.19-0.29,0.19-0.47l0-3.99
				c-0.01-0.36-0.3-0.65-0.66-0.65c-0.36,0-0.66,0.29-0.66,0.65l0,3.99C101.55,128.18,101.72,128.42,101.96,128.53z"/>
			<path class="st6" d="M97.32,134.52c0,0.27,0.16,0.51,0.41,0.61c0.25,0.1,0.53,0.05,0.72-0.14c0.12-0.12,0.19-0.29,0.19-0.47
				l0-0.66c0-0.24-0.12-0.46-0.33-0.59c-0.21-0.12-0.46-0.12-0.67,0c-0.21,0.12-0.33,0.34-0.33,0.58V134.52z"/>
			<path class="st6" d="M97.7,114.14l-0.75,6.44l6.31,0C102.99,117.46,100.75,114.86,97.7,114.14z"/>
			<path class="st6" d="M97.73,131.82c0.25,0.1,0.53,0.05,0.72-0.14c0.12-0.12,0.19-0.29,0.19-0.47v-3.99
				c-0.01-0.36-0.3-0.65-0.66-0.65c-0.36,0-0.66,0.29-0.66,0.65l0,3.99C97.32,131.47,97.49,131.71,97.73,131.82z"/>
		</g>
		<g>
			<path class="st7" d="M95.46,121.83l1.59-13.57c0.3-2.55,0.12-5.12-0.53-7.6l-2.93,0.18c0.18,0.65,0.33,1.31,0.46,1.97
				c1.56,8.92,0.67,19.16,0.66,19.18C94.99,121.93,95.25,121.88,95.46,121.83z"/>
			<path class="st7" d="M96.13,99.32C96.13,99.32,96.12,99.32,96.13,99.32L96.13,99.32c-1.18-3.53-3.3-6.68-6.12-9.1l-0.01,0
				c0,0,1.87,4.54,3.41,9.68C94.61,99.9,96.13,99.32,96.13,99.32z"/>
		</g>
		<g>
			<path class="st8" d="M95.46,121.83l1.59-13.57c0.3-2.55,0.12-5.12-0.53-7.6l-2.02,0c0.18,0.65,0.33,1.31,0.46,1.97
				c1.56,8.92-0.24,19.34-0.24,19.36C94.99,121.93,95.25,121.88,95.46,121.83z"/>
			<path class="st8" d="M96.13,99.32C96.13,99.32,96.12,99.32,96.13,99.32L96.13,99.32c-1.18-3.53-3.3-6.68-6.12-9.1l-0.01,0
				c0,0,2.71,4.4,4.25,9.54C95.41,99.54,96.13,99.32,96.13,99.32z"/>
		</g>
		<path class="st7" d="M96.52,100.65c0,0-2.93-0.37-6.53-0.37c-3.6,0-6.51,0.37-6.51,0.37s2.92,0.9,6.52,0.9
			C93.6,101.55,96.52,100.65,96.52,100.65z"/>
		<g>
			<path class="st2" d="M74.74,104.25c0,0,2.75-0.45,2.75-0.63s-2.75-0.63-2.75-0.63s-0.45-3.37-0.63-3.37s-0.63,3.37-0.63,3.37
				s-2.75,0.45-2.75,0.63s2.75,0.63,2.75,0.63s0.45,3.37,0.63,3.37S74.74,104.25,74.74,104.25z"/>
			<path class="st2" d="M74.11,107.87c-0.24,0-0.39,0-0.85-3.41c-2.77-0.46-2.77-0.62-2.77-0.84c0-0.23,0-0.38,2.77-0.84
				c0.46-3.41,0.61-3.41,0.85-3.41s0.39,0,0.85,3.41c2.77,0.46,2.77,0.62,2.77,0.84c0,0.23,0,0.38-2.77,0.84
				C74.5,107.87,74.35,107.87,74.11,107.87z M71.52,103.62c0.52,0.12,1.29,0.26,2,0.38l0.18,0.03l0.03,0.18
				c0.12,0.87,0.26,1.81,0.38,2.45c0.12-0.65,0.26-1.58,0.38-2.45l0.03-0.18L74.7,104c0.71-0.12,1.48-0.26,2-0.38
				c-0.52-0.12-1.29-0.26-2-0.38l-0.18-0.03l-0.03-0.18c-0.12-0.87-0.26-1.81-0.38-2.45c-0.12,0.65-0.26,1.58-0.38,2.45l-0.03,0.18
				l-0.18,0.03C72.81,103.36,72.04,103.5,71.52,103.62z"/>
		</g>
		<g>
			<path class="st2" d="M107.38,106.67c0,0,2.4-0.4,2.4-0.55c0-0.15-2.4-0.55-2.4-0.55s-0.4-2.95-0.55-2.95s-0.55,2.95-0.55,2.95
				s-2.4,0.4-2.4,0.55c0,0.15,2.4,0.55,2.4,0.55s0.4,2.95,0.55,2.95S107.38,106.67,107.38,106.67z"/>
			<path class="st2" d="M106.83,109.87c-0.24,0-0.37,0-0.77-2.99c-2.43-0.41-2.43-0.54-2.43-0.76s0-0.36,2.43-0.77
				c0.41-2.98,0.53-2.98,0.77-2.98c0.24,0,0.37,0,0.77,2.98c2.43,0.41,2.43,0.54,2.43,0.77s0,0.36-2.43,0.76
				C107.19,109.87,107.07,109.87,106.83,109.87z M104.71,106.12c0.45,0.1,1.06,0.21,1.61,0.3l0.18,0.03l0.02,0.18
				c0.09,0.69,0.2,1.42,0.3,1.97c0.1-0.55,0.21-1.29,0.3-1.97l0.03-0.18l0.18-0.03c0.55-0.09,1.16-0.2,1.61-0.3
				c-0.45-0.1-1.06-0.21-1.61-0.3l-0.18-0.03l-0.03-0.18c-0.09-0.69-0.2-1.42-0.3-1.97c-0.1,0.55-0.21,1.29-0.3,1.97l-0.02,0.18
				l-0.18,0.03C105.77,105.91,105.16,106.02,104.71,106.12z"/>
		</g>
		<g>
			<path class="st2" d="M101.02,94.38c0,0,1.37-0.23,1.37-0.31c0-0.09-1.37-0.31-1.37-0.31s-0.23-1.69-0.31-1.69
				s-0.31,1.69-0.31,1.69s-1.37,0.23-1.37,0.31c0,0.09,1.37,0.31,1.37,0.31s0.23,1.69,0.31,1.69S101.02,94.38,101.02,94.38z"/>
			<path class="st2" d="M100.7,96.32c-0.23,0-0.3,0-0.54-1.72c-1.4-0.24-1.4-0.32-1.4-0.53c0-0.21,0-0.29,1.4-0.53
				c0.24-1.72,0.31-1.72,0.54-1.72c0.23,0,0.3,0,0.54,1.72c1.4,0.24,1.4,0.32,1.4,0.53c0,0.21,0,0.29-1.4,0.53
				C101,96.32,100.93,96.32,100.7,96.32z M100.04,94.07c0.13,0.02,0.26,0.05,0.39,0.07l0.18,0.03l0.03,0.18
				c0.02,0.15,0.04,0.31,0.07,0.47c0.02-0.16,0.04-0.31,0.07-0.47l0.03-0.18l0.18-0.03c0.12-0.02,0.26-0.04,0.39-0.07
				c-0.13-0.02-0.26-0.05-0.39-0.07l-0.18-0.03l-0.03-0.18c-0.02-0.15-0.04-0.31-0.07-0.47c-0.02,0.16-0.05,0.31-0.07,0.47
				l-0.03,0.18L100.43,94C100.3,94.02,100.17,94.05,100.04,94.07z"/>
		</g>
	</g>
</g>
<g id="Border">
	<path class="st5" d="M142,26c1.1,0,2,0.9,2,2v72c0,29.78-24.22,54-54,54c-29.76,0-53.97-24.19-54-53.94V100V28c0-1.1,0.9-2,2-2H142
		 M142,18H38c-5.52,0-10,4.48-10,10v72c0,0,0,0,0,0c0,34.24,27.76,62,62,62s62-27.76,62-62V28C152,22.48,147.52,18,142,18L142,18z"
		/>
	<path class="st2" d="M142,23c2.76,0,5,2.24,5,5v72c0,31.43-25.57,57-57,57c-31.4,0-56.96-25.53-57-56.92V100V28c0-2.76,2.24-5,5-5
		H142 M142,18H38c-5.52,0-10,4.48-10,10v72c0,0,0,0,0,0c0,34.24,27.76,62,62,62s62-27.76,62-62V28C152,22.48,147.52,18,142,18
		L142,18z"/>
	<path class="st9" d="M165,18"/>
	<g>
		<path class="st2" d="M44.16,34.31h-3.04v-2.63h9.33v2.63h-3.04V43h-3.25V34.31z"/>
		<path class="st2" d="M63.06,31.68h3.25v4.18h4.01v-4.18h3.23V43h-3.23v-4.5h-4.01V43h-3.25V31.68z"/>
		<path class="st2" d="M87.32,31.68h3.26V43h-3.26V31.68z"/>
		<path class="st2" d="M104.51,31.68h3.28l3.09,4.44c0.8,1.14,1.27,2.02,1.31,2.09h0.03c-0.02-0.08-0.07-1.07-0.07-1.97v-4.56h2.92
			V43h-2.96l-3.47-4.88c-0.83-1.16-1.17-1.77-1.24-1.89h-0.03c0,0.1,0.05,0.87,0.05,1.72V43h-2.92V31.68z"/>
		<path class="st2" d="M128.75,31.68H132v4.45l3.26-4.45h3.52l-3.86,5.18l3.96,6.14h-3.77L132,38.12V43h-3.25V31.68z"/>
	</g>
	<g>
		<path class="st2" d="M126.19,50.05v0.9v0.52c0,0.03-0.01,0.06-0.03,0.08c-0.02,0.02-0.05,0.03-0.08,0.03h-0.58h-1.21h-0.23
			c-0.06,0-0.09,0.03-0.11,0.1v0.53c0.01,0.06,0.05,0.09,0.11,0.09h0.15h1.37h0.5c0.03,0,0.06,0.01,0.08,0.03
			c0.02,0.02,0.03,0.05,0.03,0.08v0.73c0,0.03-0.01,0.06-0.03,0.08c-0.02,0.02-0.05,0.03-0.08,0.03h-0.95h-0.97h-0.44h-0.01h-0.58
			c-0.08,0-0.11-0.04-0.11-0.11v-0.58v-0.01v-0.34v-0.53v-0.23c0-0.02,0.02-0.06,0.05-0.13l0.55-0.55c0.03-0.01,0.06-0.02,0.1-0.03
			s0.08-0.01,0.11-0.01h0.09h0.8h0.42c0.03,0,0.06-0.01,0.08-0.03c0.02-0.02,0.03-0.05,0.03-0.08v-0.49c0-0.03-0.01-0.06-0.03-0.08
			c-0.02-0.02-0.05-0.03-0.08-0.03h-0.91h-0.56h-0.41c-0.03,0-0.06-0.01-0.08-0.03c-0.02-0.02-0.03-0.05-0.03-0.08v-0.74
			c0-0.03,0.01-0.06,0.03-0.08c0.02-0.02,0.05-0.03,0.08-0.03h0.25h1.59h0.29c0.03,0,0.07,0,0.11,0.02
			c0.04,0.01,0.08,0.02,0.11,0.03l0.55,0.55c0.03,0.06,0.04,0.1,0.04,0.11v0.08v0.06c0,0.01,0,0.02,0.01,0.02v0.01V50.05z"/>
		<path class="st2" d="M131.12,49.65c0.01,0.03,0.02,0.06,0.03,0.1c0.01,0.04,0.01,0.08,0.01,0.11v0.26v2.2v0.12
			c0,0.03,0,0.07-0.01,0.11c-0.01,0.04-0.02,0.07-0.03,0.1l-0.55,0.55c-0.03,0.02-0.06,0.03-0.11,0.04s-0.08,0.01-0.11,0.01h-0.14
			h-1.38h-0.07c-0.03,0-0.07,0-0.11-0.01s-0.07-0.02-0.1-0.04L128,52.65c-0.02-0.03-0.03-0.06-0.04-0.1
			c-0.01-0.04-0.01-0.08-0.01-0.11v-0.16v-2.34v-0.08c0-0.03,0-0.07,0.01-0.11c0.01-0.04,0.02-0.07,0.04-0.1l0.55-0.55
			c0.03-0.01,0.06-0.02,0.1-0.03c0.04-0.01,0.08-0.02,0.11-0.02h0.19h1.17h0.23c0.03,0,0.07,0,0.11,0.02
			c0.04,0.01,0.08,0.02,0.11,0.03L131.12,49.65z M128.97,52.24h1.18v-2.17h-1.18V52.24z"/>
		<path class="st2" d="M134.23,49.16v3.97c0,0.08-0.04,0.11-0.11,0.11h-0.83c-0.08,0-0.11-0.04-0.11-0.11v-2.96
			c0-0.02-0.01-0.02-0.03-0.02c-0.02,0-0.04,0.01-0.06,0.03l-0.29,0.23c-0.02,0.02-0.04,0.03-0.06,0.01
			c-0.02-0.01-0.03-0.03-0.03-0.06v-0.84c0-0.03,0.01-0.07,0.03-0.1c0.02-0.03,0.04-0.06,0.06-0.08l0.29-0.23
			c0.02-0.02,0.06-0.04,0.1-0.05c0.04-0.01,0.08-0.02,0.11-0.02h0.14h0.69C134.2,49.05,134.23,49.09,134.23,49.16z"/>
		<path class="st2" d="M135.81,51.44c-0.02-0.03-0.03-0.06-0.04-0.11c-0.01-0.04-0.01-0.08-0.01-0.11v-0.11v-1.25v-0.01
			c0-0.03,0-0.07,0.02-0.1c0.01-0.04,0.02-0.07,0.03-0.09l0.55-0.55c0.03-0.01,0.06-0.02,0.1-0.03c0.04-0.01,0.08-0.02,0.11-0.02
			h0.16h0.86h0.11h0.11h0.14h0.24v0.01c0.06,0.01,0.12,0.02,0.17,0.04l0.55,0.55c0.01,0.03,0.02,0.06,0.03,0.1s0.01,0.08,0.01,0.11
			v0.05v1.16v2.06c0,0.03-0.01,0.06-0.03,0.08c-0.02,0.02-0.05,0.03-0.08,0.03h-0.83c-0.03,0-0.06-0.01-0.08-0.03
			c-0.02-0.02-0.03-0.05-0.03-0.08v-0.98c0-0.03-0.01-0.06-0.03-0.08c-0.02-0.02-0.05-0.03-0.08-0.03h-0.71h-0.3h-0.22
			c-0.03,0-0.07,0-0.11-0.01s-0.07-0.02-0.1-0.03L135.81,51.44z M137.95,50h-1.18v1.06h1.18V50z"/>
	</g>
	<g>
		<path class="st2" d="M43.28,49.96c0,0.03-0.01,0.06-0.03,0.08c-0.02,0.02-0.05,0.03-0.08,0.03h-0.85c-0.03,0-0.06,0.01-0.08,0.03
			c-0.02,0.02-0.03,0.05-0.03,0.08v2.96c0,0.03-0.01,0.06-0.03,0.08c-0.02,0.02-0.05,0.03-0.08,0.03h-0.83
			c-0.03,0-0.06-0.01-0.08-0.03c-0.02-0.02-0.03-0.05-0.03-0.08v-2.96c0-0.03-0.01-0.06-0.03-0.08c-0.02-0.02-0.05-0.03-0.08-0.03
			h-0.85c-0.03,0-0.06-0.01-0.08-0.03c-0.02-0.02-0.03-0.05-0.03-0.08v-0.79c0-0.08,0.04-0.11,0.11-0.11h0.85h0.22h0.83h0.22h0.85
			c0.03,0,0.06,0.01,0.08,0.03c0.02,0.02,0.03,0.05,0.03,0.08V49.96z"/>
		<path class="st2" d="M45.91,50.1c-0.02,0.02-0.03,0.05-0.03,0.08v1.94c0,0.03,0.01,0.06,0.03,0.08c0.02,0.02,0.05,0.03,0.08,0.03
			h1.93c0.03,0,0.06,0.01,0.08,0.03c0.02,0.02,0.03,0.05,0.03,0.08v0.79c0,0.03-0.01,0.06-0.03,0.08c-0.02,0.02-0.05,0.03-0.08,0.03
			h-1.84H45.7h-0.08c-0.03,0-0.07,0-0.11-0.01s-0.07-0.02-0.1-0.04l-0.55-0.55c-0.02-0.03-0.03-0.06-0.04-0.1
			c-0.01-0.04-0.01-0.08-0.01-0.11V52.4v-0.64v-1.43v-0.32v-0.16c0-0.03,0-0.07,0.01-0.11c0.01-0.04,0.02-0.07,0.04-0.1l0.55-0.55
			c0.03-0.01,0.06-0.02,0.09-0.03c0.03-0.01,0.05-0.02,0.07-0.02h0.05h0.08h0.02h0.01h0.14h2.03c0.03,0,0.06,0.01,0.08,0.03
			c0.02,0.02,0.03,0.05,0.03,0.08v0.79c0,0.03-0.01,0.06-0.03,0.08c-0.02,0.02-0.05,0.03-0.08,0.03h-1.93
			C45.95,50.07,45.93,50.08,45.91,50.1z"/>
		<path class="st2" d="M51.34,51.73c0,0.03-0.01,0.06-0.03,0.08c-0.02,0.02-0.05,0.03-0.08,0.03h-1.3c-0.03,0-0.06-0.01-0.08-0.03
			c-0.02-0.02-0.03-0.05-0.03-0.08v-0.79c0-0.08,0.04-0.11,0.11-0.11h1.3c0.03,0,0.06,0.01,0.08,0.03c0.02,0.02,0.03,0.05,0.03,0.08
			V51.73z"/>
		<path class="st2" d="M56.6,49.65c0.01,0.03,0.02,0.06,0.03,0.1c0.01,0.04,0.01,0.08,0.01,0.11v0.11v2.15v0.31
			c0,0.03,0,0.07-0.01,0.11c-0.01,0.04-0.02,0.07-0.03,0.1l-0.55,0.55c-0.03,0.02-0.06,0.03-0.11,0.04s-0.08,0.01-0.11,0.01h-0.13
			h-1.45h-0.32c-0.03,0-0.07,0-0.11-0.01s-0.07-0.02-0.1-0.04l-0.55-0.55c-0.02-0.03-0.03-0.06-0.04-0.1
			c-0.01-0.04-0.01-0.08-0.01-0.11v-0.13v-2.14v-0.31c0-0.03,0-0.07,0.01-0.11c0.01-0.04,0.02-0.07,0.04-0.1l0.55-0.55
			c0.03-0.01,0.06-0.02,0.1-0.03c0.04-0.01,0.08-0.02,0.11-0.02h0.26h1.26h0.38c0.03,0,0.07,0,0.11,0.02
			c0.04,0.01,0.08,0.02,0.11,0.03L56.6,49.65z M55.58,50.07h-1.41v2.17h1.41V50.07z"/>
		<path class="st2" d="M61.59,49.65c0.01,0.03,0.02,0.06,0.03,0.1s0.02,0.08,0.02,0.11v0.17v1.09v0.11c0,0.03-0.01,0.07-0.02,0.11
			s-0.02,0.08-0.03,0.11L61.04,52c-0.03,0.01-0.06,0.02-0.1,0.03s-0.08,0.01-0.11,0.01h-0.17h-0.44H59.6
			c-0.03,0-0.06,0.01-0.08,0.03c-0.02,0.02-0.03,0.05-0.03,0.08v0.98c0,0.08-0.04,0.11-0.11,0.11h-0.83c-0.08,0-0.11-0.04-0.11-0.11
			v-0.58v-2.48v-0.91c0-0.03,0.01-0.06,0.03-0.08c0.02-0.02,0.05-0.03,0.08-0.03h1.83h0.31h0.14c0.03,0,0.07,0,0.11,0.02
			c0.04,0.01,0.08,0.02,0.1,0.03L61.59,49.65z M60.62,51.07V50h-1.18v1.06H60.62z"/>
		<path class="st2" d="M66.35,51.43c0.01,0.04,0.01,0.08,0.01,0.11v0.17v0.44v0.29c0,0.03,0,0.07-0.01,0.11
			c-0.01,0.04-0.02,0.07-0.03,0.1l-0.55,0.55c-0.03,0.02-0.06,0.03-0.11,0.04s-0.08,0.01-0.11,0.01h-0.13h-1.36h-0.79
			c-0.08,0-0.11-0.04-0.11-0.11v-0.73c0-0.03,0.01-0.06,0.03-0.08c0.02-0.02,0.05-0.03,0.08-0.03h0.95h0.52h0.57
			c0.03,0,0.06-0.01,0.08-0.03c0.02-0.02,0.03-0.05,0.03-0.08v-0.5c0-0.03-0.01-0.06-0.03-0.08c-0.02-0.02-0.05-0.03-0.08-0.03
			h-0.54h-0.72h-0.08c-0.03,0-0.07,0-0.11-0.01c-0.04-0.01-0.07-0.02-0.1-0.03l-0.55-0.55c-0.02-0.03-0.03-0.07-0.04-0.11
			c-0.01-0.04-0.01-0.08-0.01-0.11v-0.11v-0.68v-0.11c0-0.03,0-0.07,0.01-0.11c0.01-0.04,0.02-0.07,0.04-0.1l0.55-0.55
			c0.03-0.01,0.06-0.02,0.1-0.03c0.04-0.01,0.08-0.02,0.11-0.02h0.11h1.67h0.37c0.03,0,0.06,0.01,0.08,0.03
			c0.02,0.02,0.03,0.05,0.03,0.08v0.74c0,0.03-0.01,0.06-0.03,0.08c-0.02,0.02-0.05,0.03-0.08,0.03H65.7h-1.1h-0.39
			c-0.03,0-0.06,0.01-0.08,0.03c-0.02,0.02-0.03,0.05-0.03,0.08v0.49c0,0.03,0.01,0.06,0.03,0.08c0.02,0.02,0.05,0.03,0.08,0.03
			h0.38h0.82h0.14c0.03,0,0.07,0,0.11,0.01s0.08,0.02,0.11,0.03l0.55,0.55C66.33,51.35,66.34,51.39,66.35,51.43z"/>
	</g>
	<g>
		<path class="st2" d="M50.97,126.24l0.74,0.99l-1.28,1.81c-0.18,0.25-0.39,0.51-0.41,0.53l0.01,0.01c0.02-0.01,0.33-0.13,0.62-0.24
			l2.08-0.72l0.69,0.93l-4.1,1.18l-0.64-0.87L50.97,126.24z"/>
		<path class="st2" d="M53.77,129.94l1.65,1.89l-0.7,0.61l-0.91-1.04l-0.45,0.39l0.8,0.92l-0.65,0.57l-0.8-0.92l-0.51,0.44
			l0.94,1.07l-0.7,0.61l-1.68-1.92L53.77,129.94z"/>
		<path class="st2" d="M55.99,132.47l0.83,0.8l-0.3,1.89c-0.08,0.49-0.17,0.83-0.18,0.85l0.01,0.01c0.02-0.03,0.25-0.29,0.47-0.52
			l1.12-1.16l0.74,0.72l-2.77,2.88l-0.75-0.72l0.32-2.09c0.07-0.5,0.13-0.74,0.15-0.78l-0.01-0.01c-0.02,0.03-0.2,0.23-0.41,0.45
			l-1.24,1.28l-0.74-0.72L55.99,132.47z"/>
		<path class="st2" d="M59.45,135.69l0.88,0.74l-2.56,3.07l-0.88-0.74L59.45,135.69z"/>
		<path class="st2" d="M61.34,137.28l0.91,0.64l-0.77,2.24c-0.09,0.25-0.23,0.6-0.24,0.62l0.01,0.01c0.02-0.02,0.31-0.27,0.52-0.43
			l1.88-1.45l0.91,0.64l-1.86,3.58l-0.96-0.68l0.79-1.43c0.14-0.27,0.27-0.49,0.29-0.53l-0.01-0.01c-0.03,0.03-0.24,0.21-0.46,0.39
			l-1.33,1.08l-0.93-0.65l0.58-1.6c0.09-0.24,0.21-0.53,0.22-0.56l-0.01-0.01c-0.02,0.03-0.21,0.27-0.39,0.46l-1.11,1.21l-0.83-0.59
			L61.34,137.28z"/>
		<path class="st2" d="M64.28,142.21l1.18-2.1l1,0.56l-1.14,2.03c-0.28,0.49-0.25,0.79,0.22,1.06c0.43,0.24,0.71,0.08,0.96-0.37
			l1.15-2.05l0.92,0.52l-1.12,1.99c-0.58,1.03-1.4,1.26-2.39,0.7C64.01,143.97,63.73,143.19,64.28,142.21z"/>
		<path class="st2" d="M67.53,145.46l0.74-0.53c0.06,0.09,0.26,0.41,0.63,0.58c0.3,0.14,0.49,0.11,0.57-0.06
			c0.11-0.23-0.25-0.41-0.58-0.83c-0.34-0.43-0.48-0.86-0.2-1.46c0.3-0.65,1.03-0.83,1.75-0.49c0.64,0.29,0.88,0.64,1,0.84
			l-0.72,0.54c-0.09-0.13-0.32-0.4-0.58-0.52c-0.25-0.11-0.4-0.1-0.48,0.08c-0.1,0.22,0.17,0.39,0.48,0.74
			c0.38,0.43,0.65,0.85,0.35,1.49c-0.34,0.73-1.04,0.93-1.93,0.52C67.95,146.07,67.65,145.67,67.53,145.46z"/>
		<path class="st2" d="M70.46,147.89c0.26-0.11,0.45-0.21,0.53-0.42c0.11-0.27-0.1-0.44,0.03-0.77c0.12-0.32,0.47-0.44,0.79-0.31
			c0.37,0.15,0.48,0.51,0.33,0.89c-0.18,0.47-0.76,0.86-1.44,1.1L70.46,147.89z"/>
		<path class="st2" d="M75.19,144.67l1.19,0.34l0.09,2.21c0.01,0.31,0,0.64,0,0.67l0.01,0c0.01-0.02,0.18-0.31,0.35-0.57l1.21-1.84
			l1.11,0.31l-2.52,3.44l-1.04-0.29L75.19,144.67z"/>
		<path class="st2" d="M79.77,145.89l1.13,0.23l-0.81,3.91l-1.13-0.23L79.77,145.89z"/>
		<path class="st2" d="M81.94,146.34l1.42,0.19c1.55,0.21,2.17,1.09,2.02,2.23s-1.02,1.94-2.59,1.73l-1.38-0.19L81.94,146.34z
			 M82.99,149.61c0.7,0.09,1.08-0.24,1.17-0.97c0.1-0.74-0.18-1.1-0.91-1.2l-0.3-0.04l-0.29,2.17L82.99,149.61z"/>
		<path class="st2" d="M86.42,146.88l1.15,0.07l-0.25,3.98l-1.15-0.07L86.42,146.88z"/>
		<path class="st2" d="M88.86,147.03l1.12-0.02l0.71,2.25c0.08,0.25,0.17,0.62,0.17,0.65l0.01,0c0-0.02,0.09-0.4,0.16-0.65
			l0.66-2.28l1.12-0.02l0.62,3.98l-1.17,0.02l-0.21-1.62c-0.04-0.3-0.08-0.56-0.08-0.6h-0.01c-0.01,0.04-0.07,0.31-0.14,0.58
			l-0.43,1.65L90.25,151l-0.48-1.63c-0.07-0.24-0.15-0.55-0.15-0.58h-0.01c0,0.04-0.01,0.34-0.04,0.6l-0.17,1.63l-1.02,0.02
			L88.86,147.03z"/>
		<path class="st2" d="M94.13,149.27l-0.29-2.39l1.14-0.14l0.28,2.31c0.07,0.56,0.26,0.79,0.8,0.72c0.49-0.06,0.62-0.35,0.56-0.86
			l-0.28-2.33l1.04-0.12l0.27,2.27c0.14,1.17-0.39,1.84-1.51,1.97C94.95,150.85,94.26,150.39,94.13,149.27z"/>
		<path class="st2" d="M98.69,149.96l0.28-0.87c0.1,0.04,0.45,0.18,0.85,0.1c0.33-0.07,0.46-0.2,0.42-0.39
			c-0.05-0.25-0.44-0.19-0.95-0.33c-0.53-0.14-0.9-0.41-1.03-1.06c-0.14-0.7,0.34-1.27,1.12-1.43c0.69-0.14,1.09-0.01,1.3,0.09
			l-0.26,0.86c-0.15-0.05-0.5-0.13-0.77-0.08c-0.26,0.05-0.38,0.15-0.34,0.34c0.05,0.24,0.36,0.21,0.82,0.32
			c0.56,0.12,1.02,0.3,1.16,0.99c0.16,0.79-0.29,1.36-1.25,1.56C99.39,150.21,98.91,150.07,98.69,149.96z"/>
		<path class="st2" d="M102.51,150.2c0.14-0.24,0.24-0.43,0.18-0.66c-0.07-0.28-0.34-0.29-0.43-0.64c-0.09-0.33,0.12-0.63,0.45-0.72
			c0.38-0.1,0.69,0.13,0.79,0.52c0.13,0.49-0.11,1.15-0.5,1.74L102.51,150.2z"/>
		<path class="st2" d="M104.42,144.79l1.16-0.43l1.38,1.74c0.2,0.25,0.38,0.52,0.39,0.54l0.01,0c0-0.02-0.04-0.36-0.05-0.67
			l-0.11-2.21l1.08-0.4l0,4.27l-1.01,0.38L104.42,144.79z"/>
		<path class="st2" d="M109.74,145.33l-1.05-2.17l1.03-0.5l1.01,2.1c0.25,0.51,0.51,0.66,0.99,0.43c0.44-0.21,0.47-0.54,0.25-1
			l-1.02-2.12l0.95-0.46l0.99,2.06c0.51,1.06,0.23,1.87-0.79,2.36C111.02,146.56,110.23,146.35,109.74,145.33z"/>
		<path class="st2" d="M112.72,141.16l0.99-0.58l1.56,2.66l1.23-0.72l0.46,0.78l-2.22,1.3L112.72,141.16z"/>
		<path class="st2" d="M116.44,141.29c-0.62-0.89-0.5-2.17,0.7-3.01c0.54-0.37,0.94-0.49,1.31-0.5l0.1,0.98
			c-0.23,0.01-0.54,0.07-0.88,0.3c-0.57,0.4-0.65,0.94-0.25,1.51c0.4,0.57,0.92,0.81,1.48,0.41c0.19-0.13,0.3-0.27,0.34-0.34
			l-0.31-0.44l-0.53,0.37l-0.49-0.71l1.42-0.99l1.17,1.67c-0.14,0.28-0.36,0.69-1.07,1.18
			C118.23,142.56,117.06,142.18,116.44,141.29z"/>
		<path class="st2" d="M119.06,136.93l0.9-0.72l2.51,3.11l-0.9,0.72L119.06,136.93z"/>
		<path class="st2" d="M120.99,135.36l0.81-0.77l2.05,1.18c0.23,0.13,0.54,0.34,0.56,0.36l0.01-0.01c-0.01-0.02-0.2-0.35-0.32-0.59
			l-1.05-2.13l0.81-0.77l3.15,2.52l-0.85,0.81l-1.26-1.05c-0.23-0.19-0.43-0.36-0.46-0.39l-0.01,0.01c0.02,0.03,0.16,0.27,0.29,0.53
			l0.8,1.51l-0.82,0.78l-1.46-0.88c-0.22-0.13-0.48-0.3-0.51-0.33l-0.01,0.01c0.03,0.03,0.22,0.26,0.38,0.47l0.97,1.32l-0.74,0.7
			L120.99,135.36z"/>
		<path class="st2" d="M126.37,133.46l-1.83-1.57l0.75-0.87l1.77,1.52c0.43,0.37,0.73,0.4,1.08-0.01c0.32-0.37,0.22-0.68-0.17-1.02
			l-1.79-1.53l0.68-0.8l1.74,1.49c0.89,0.77,0.96,1.62,0.23,2.48C128.04,134.06,127.23,134.19,126.37,133.46z"/>
		<path class="st2" d="M130.19,130.89l-0.38-0.83c0.1-0.04,0.45-0.17,0.69-0.5c0.2-0.27,0.2-0.46,0.05-0.57
			c-0.2-0.15-0.45,0.16-0.92,0.4c-0.49,0.25-0.94,0.3-1.47-0.08c-0.58-0.42-0.61-1.17-0.14-1.82c0.41-0.57,0.8-0.74,1.02-0.81
			l0.39,0.81c-0.14,0.07-0.46,0.24-0.62,0.47c-0.16,0.22-0.18,0.37-0.02,0.48c0.19,0.14,0.41-0.09,0.82-0.32
			c0.5-0.29,0.96-0.47,1.53-0.05c0.65,0.47,0.71,1.2,0.13,1.99C130.87,130.6,130.42,130.82,130.19,130.89z"/>
	</g>
</g>
<g id="Concepts">
</g>
</svg>
