<?xml version="1.0" encoding="utf-8"?>
<!-- Generator: Adobe Illustrator 25.0.1, SVG Export Plug-In . SVG Version: 6.00 Build 0)  -->
<svg version="1.1" xmlns="http://www.w3.org/2000/svg" xmlns:xlink="http://www.w3.org/1999/xlink" x="0px" y="0px"
	 viewBox="0 0 180 180" style="enable-background:new 0 0 180 180;" xml:space="preserve">
<style type="text/css">
	.st0{fill:#362D2C;}
	.st1{filter:url(#Adobe_OpacityMaskFilter);}
	.st2{fill:#FFFFFF;}
	.st3{mask:url(#SVGID_1_);}
	.st4{fill:#EEB058;}
	.st5{fill:#F9DD4E;}
	.st6{fill:#1A1A1A;}
	.st7{fill:#E6E6E6;}
	.st8{fill:#CCCCCC;}
	.st9{fill:none;stroke:#0000FF;stroke-miterlimit:10;}
</style>
<g id="Background">
	<g>
		<path class="st0" d="M90,155c30.33,0,55-24.67,55-55V28c0-1.65-1.35-3-3-3H38c-1.65,0-3,1.35-3,3v72v0.09
			C35.05,130.38,59.7,155,90,155z"/>
	</g>
	<defs>
		<filter id="Adobe_OpacityMaskFilter" filterUnits="userSpaceOnUse" x="-12" y="50.76" width="204" height="190.92">
			<feColorMatrix  type="matrix" values="1 0 0 0 0  0 1 0 0 0  0 0 1 0 0  0 0 0 1 0"/>
		</filter>
	</defs>
	<mask maskUnits="userSpaceOnUse" x="-12" y="50.76" width="204" height="190.92" id="SVGID_1_">
		<g class="st1">
			<path class="st2" d="M142,18H38c-5.52,0-10,4.48-10,10v72c0,0,0,0,0,0c0,34.24,27.76,62,62,62s62-27.76,62-62V28
				C152,22.48,147.52,18,142,18z"/>
		</g>
	</mask>
	<g class="st3">
		<path class="st4" d="M175.05,86.86l-79-34.82c-3.85-1.7-8.25-1.7-12.1,0l-79,34.82C-0.49,89.26-4,94.64-4,100.58v22.1
			c0,4.94,2.44,9.57,6.51,12.37c4.08,2.8,9.28,3.41,13.88,1.62l73.6-28.4l73.6,28.4c1.75,0.67,3.58,1.01,5.4,1.01
			c2.99,0,5.95-0.89,8.49-2.63c4.08-2.8,6.51-7.42,6.51-12.37v-22.1C184,94.64,180.49,89.26,175.05,86.86z"/>
		<path class="st5" d="M180.4,116.15l-79-54.82c-6.86-4.76-15.95-4.76-22.8,0l-79,54.82c-5.39,3.74-8.6,9.88-8.6,16.43v2.1
			c0,6.67,3.33,12.9,8.87,16.62c5.54,3.71,12.57,4.42,18.74,1.88L90,123.82l71.39,29.35c2.45,1.01,5.03,1.5,7.6,1.5
			c3.91,0,7.79-1.15,11.13-3.38c5.54-3.71,8.87-9.94,8.87-16.62v-2.1C189,126.03,185.79,119.89,180.4,116.15z"/>
		<path class="st2" d="M183.64,158.95l-79-84.82c-3.78-4.06-9.08-6.37-14.64-6.37s-10.85,2.31-14.64,6.37l-79,84.82
			c-3.45,3.7-5.36,8.57-5.36,13.63v2.1c0,7.67,4.38,14.66,11.29,18c6.9,3.34,15.11,2.44,21.12-2.32L90,137.7l66.59,52.67
			c3.6,2.85,7.99,4.31,12.41,4.31c2.96,0,5.94-0.66,8.71-2c6.9-3.34,11.29-10.33,11.29-18v-2.1
			C189,167.53,187.08,162.66,183.64,158.95z"/>
		<path class="st6" d="M187.79,203.31l-79-111.82c-4.31-6.1-11.32-9.73-18.79-9.73s-14.47,3.63-18.79,9.73l-79,111.82
			c-2.74,3.88-4.21,8.52-4.21,13.27v2.1c0,9.56,5.92,18.13,14.86,21.51c8.94,3.38,19.05,0.88,25.38-6.29L90,163.95l61.76,69.95
			c4.45,5.04,10.78,7.78,17.25,7.78c2.73,0,5.48-0.49,8.13-1.49c8.94-3.38,14.86-11.95,14.86-21.51v-2.1
			C192,211.83,190.53,207.2,187.79,203.31z"/>
	</g>
</g>
<g id="Content">
	<g>
		<g>
			<g>
				<path class="st2" d="M88.59,105.21c-0.57,0.57-0.74,1.43-0.43,2.17c0.31,0.74,1.04,1.23,1.84,1.23c1.09-0.03,1.97-0.9,1.99-1.99
					c0-0.81-0.49-1.53-1.23-1.84C90.02,104.47,89.16,104.64,88.59,105.21L88.59,105.21z M88.59,105.21"/>
				<path class="st2" d="M96.12,99.32L96.12,99.32c-1.18-3.53-3.29-6.67-6.11-9.1l-0.01,0c-0.4,0.34-0.79,0.7-1.16,1.07
					c-2.25,2.25-3.95,5-4.96,8.03h0l0,0c0,0,2.74,0.84,6.13,0.84C93.39,100.17,96.13,99.32,96.12,99.32
					C96.13,99.32,96.12,99.32,96.12,99.32z"/>
			</g>
			<path class="st2" d="M96.95,120.58l6.31,0c-0.28-3.12-2.51-5.71-5.56-6.43L96.95,120.58z M96.95,120.58"/>
			<path class="st2" d="M78.84,116.07c-1.21,1.21-1.96,2.8-2.11,4.5l6.31,0l-0.75-6.44C80.99,114.45,79.79,115.12,78.84,116.07
				L78.84,116.07z M78.84,116.07"/>
			<path class="st2" d="M90,123.8c-1.26,0-2.44-0.11-3.44-0.26l0,2.23c0,1.1,0.89,1.99,1.99,1.99l2.89,0c1.1,0,1.99-0.89,1.99-1.99
				v-2.23C92.44,123.69,91.26,123.8,90,123.8z"/>
			<path class="st5" d="M93.32,135.2c0.01-1.19-0.63-2.29-1.66-2.89c-1.03-0.6-2.3-0.6-3.33,0c-1.03,0.6-1.66,1.7-1.66,2.89
				c0,1.29,1.86,4.68,3.32,7.02C91.47,139.88,93.32,136.49,93.32,135.2L93.32,135.2z M93.32,135.2"/>
			<path class="st2" d="M98.46,131.67c-0.19,0.19-0.48,0.25-0.72,0.14c-0.25-0.1-0.41-0.35-0.41-0.61l0-3.99
				c0.01-0.36,0.3-0.65,0.66-0.65c0.36,0,0.66,0.29,0.66,0.65v3.99C98.65,131.38,98.58,131.55,98.46,131.67L98.46,131.67z
				 M98.46,131.67"/>
			<path class="st2" d="M102.69,128.38c-0.19,0.19-0.48,0.25-0.72,0.14c-0.25-0.1-0.41-0.35-0.41-0.61l0-3.99
				c0.01-0.36,0.3-0.65,0.66-0.65c0.36,0,0.66,0.29,0.66,0.65l0,3.99C102.88,128.09,102.81,128.26,102.69,128.38L102.69,128.38z
				 M102.69,128.38"/>
			<path class="st2" d="M98.46,134.99c-0.19,0.19-0.48,0.25-0.72,0.14c-0.25-0.1-0.41-0.35-0.41-0.61v-0.66
				c0-0.24,0.12-0.46,0.33-0.58c0.21-0.12,0.46-0.12,0.67,0c0.21,0.12,0.33,0.34,0.33,0.59l0,0.66
				C98.65,134.7,98.58,134.87,98.46,134.99L98.46,134.99z M98.46,134.99"/>
			<path class="st2" d="M82.01,132.14c-0.19,0.19-0.48,0.25-0.72,0.14c-0.25-0.1-0.41-0.35-0.41-0.61l0-3.99
				c0.01-0.36,0.3-0.65,0.66-0.65c0.36,0,0.66,0.29,0.66,0.65v3.99C82.21,131.85,82.14,132.02,82.01,132.14L82.01,132.14z
				 M82.01,132.14"/>
			<g>
				<path class="st2" d="M78.25,128.38c-0.19,0.19-0.48,0.25-0.72,0.14c-0.25-0.1-0.41-0.35-0.41-0.61l0-3.99
					c0.01-0.36,0.3-0.65,0.66-0.65c0.36,0,0.66,0.29,0.66,0.65v3.99C78.45,128.09,78.38,128.26,78.25,128.38L78.25,128.38z
					 M78.25,128.38"/>
				<path class="st2" d="M82.01,135.46c-0.19,0.19-0.48,0.25-0.72,0.14c-0.25-0.1-0.41-0.35-0.41-0.61v-0.66
					c0-0.24,0.12-0.46,0.33-0.58c0.21-0.12,0.46-0.12,0.67,0c0.21,0.12,0.33,0.35,0.33,0.59l0,0.66
					C82.21,135.17,82.14,135.34,82.01,135.46L82.01,135.46z M82.01,135.46"/>
			</g>
		</g>
		<path class="st2" d="M96.52,100.65l-13.04,0c-0.65,2.48-0.83,5.06-0.53,7.6l1.59,13.57c1.16,0.26,3.17,0.63,5.47,0.63
			c2.29,0,4.3-0.36,5.46-0.63l1.59-13.57C97.35,105.71,97.17,103.13,96.52,100.65z M90.67,118.85c0,0.37-0.3,0.67-0.66,0.67
			c-0.37,0-0.67-0.3-0.67-0.66l0-0.66c0.01-0.36,0.3-0.65,0.66-0.65c0.36,0,0.66,0.29,0.66,0.65l0,0L90.67,118.85z M90.67,115.53
			c-0.01,0.36-0.3,0.65-0.66,0.65c-0.36,0-0.66-0.29-0.66-0.65l0-2.66c0.01-0.36,0.3-0.65,0.66-0.65c0.36,0,0.66,0.29,0.66,0.65
			L90.67,115.53z M90.65,109.88c-1.55,0.31-3.11-0.52-3.72-1.99c-0.61-1.46-0.09-3.15,1.22-4.03c1.32-0.88,3.07-0.71,4.2,0.41
			c0.63,0.62,0.97,1.47,0.97,2.35l0,0C93.32,108.2,92.2,109.57,90.65,109.88z"/>
		<g>
			<path class="st7" d="M96.52,100.65l-6.53,0v2.65c0.86,0,1.71,0.33,2.36,0.97c0.62,0.62,0.97,1.47,0.97,2.35l0,0
				c0,1.59-1.12,2.95-2.68,3.26c-0.22,0.04-0.44,0.06-0.65,0.06v2.28c0,0,0,0,0.01,0c0.36,0,0.66,0.29,0.66,0.65l0,2.66
				c-0.01,0.36-0.3,0.65-0.66,0.65c0,0,0,0-0.01,0v1.35c0,0,0,0,0.01,0c0.36,0,0.66,0.29,0.66,0.65l0,0l0,0.66
				c0,0.37-0.3,0.67-0.66,0.67c0,0-0.01,0-0.01,0v2.93c0,0,0.01,0,0.01,0c2.29,0,4.3-0.36,5.46-0.63l1.59-13.57
				C97.35,105.71,97.17,103.13,96.52,100.65z"/>
			<path class="st4" d="M93.32,135.2c0.01-1.19-0.63-2.29-1.66-2.89c-0.52-0.3-1.09-0.45-1.67-0.45v10.35c0,0,0,0.01,0.01,0.01
				C91.47,139.88,93.32,136.49,93.32,135.2z"/>
			<path class="st7" d="M90,123.8c0,0-0.01,0.26-0.01,0.26v3.71l1.45,0c1.1,0,1.99-0.89,1.99-1.99v-2.23
				C92.44,123.69,91.26,123.8,90,123.8z"/>
			<path class="st7" d="M91.99,106.62c0-0.81-0.49-1.53-1.23-1.84c-0.25-0.1-0.51-0.15-0.77-0.15v3.98c0,0,0,0,0.01,0
				C91.09,108.59,91.97,107.71,91.99,106.62z"/>
			<path class="st7" d="M90,100.17c3.38,0,6.13-0.84,6.13-0.84s-0.01,0-0.01,0h0c-1.18-3.53-3.29-6.67-6.12-9.1l-0.01,0L90,100.17
				C90,100.17,90,100.17,90,100.17z"/>
			<path class="st7" d="M101.96,128.53c0.25,0.1,0.53,0.05,0.72-0.14c0.12-0.12,0.19-0.29,0.19-0.47l0-3.99
				c-0.01-0.36-0.3-0.65-0.66-0.65c-0.36,0-0.66,0.29-0.66,0.65l0,3.99C101.55,128.18,101.72,128.42,101.96,128.53z"/>
			<path class="st7" d="M97.32,134.52c0,0.27,0.16,0.51,0.41,0.61c0.25,0.1,0.53,0.05,0.72-0.14c0.12-0.12,0.19-0.29,0.19-0.47
				l0-0.66c0-0.24-0.12-0.46-0.33-0.59c-0.21-0.12-0.46-0.12-0.67,0c-0.21,0.12-0.33,0.34-0.33,0.58V134.52z"/>
			<path class="st7" d="M97.7,114.14l-0.75,6.44l6.31,0C102.99,117.46,100.75,114.86,97.7,114.14z"/>
			<path class="st7" d="M97.73,131.82c0.25,0.1,0.53,0.05,0.72-0.14c0.12-0.12,0.19-0.29,0.19-0.47v-3.99
				c-0.01-0.36-0.3-0.65-0.66-0.65c-0.36,0-0.66,0.29-0.66,0.65l0,3.99C97.32,131.47,97.49,131.71,97.73,131.82z"/>
		</g>
		<g>
			<path class="st6" d="M95.46,121.83l1.59-13.57c0.3-2.55,0.12-5.12-0.53-7.6l-2.93,0.18c0.18,0.65,0.33,1.31,0.46,1.97
				c1.56,8.92,0.67,19.16,0.66,19.18C94.99,121.93,95.25,121.88,95.46,121.83z"/>
			<path class="st6" d="M96.13,99.32C96.13,99.32,96.12,99.32,96.13,99.32L96.13,99.32c-1.18-3.53-3.3-6.68-6.12-9.1l-0.01,0
				c0,0,1.87,4.54,3.41,9.68C94.61,99.9,96.13,99.32,96.13,99.32z"/>
		</g>
		<g>
			<path class="st8" d="M95.46,121.83l1.59-13.57c0.3-2.55,0.12-5.12-0.53-7.6l-2.02,0c0.18,0.65,0.33,1.31,0.46,1.97
				c1.56,8.92-0.24,19.34-0.24,19.36C94.99,121.93,95.25,121.88,95.46,121.83z"/>
			<path class="st8" d="M96.13,99.32C96.13,99.32,96.12,99.32,96.13,99.32L96.13,99.32c-1.18-3.53-3.3-6.68-6.12-9.1l-0.01,0
				c0,0,2.71,4.4,4.25,9.54C95.41,99.54,96.13,99.32,96.13,99.32z"/>
		</g>
		<path class="st6" d="M96.52,100.65c0,0-2.93-0.37-6.53-0.37c-3.6,0-6.51,0.37-6.51,0.37s2.92,0.9,6.52,0.9
			C93.6,101.55,96.52,100.65,96.52,100.65z"/>
		<g>
			<path class="st2" d="M74.74,104.25c0,0,2.75-0.45,2.75-0.63s-2.75-0.63-2.75-0.63s-0.45-3.37-0.63-3.37s-0.63,3.37-0.63,3.37
				s-2.75,0.45-2.75,0.63s2.75,0.63,2.75,0.63s0.45,3.37,0.63,3.37S74.74,104.25,74.74,104.25z"/>
			<path class="st2" d="M74.11,107.87c-0.24,0-0.39,0-0.85-3.41c-2.77-0.46-2.77-0.62-2.77-0.84c0-0.23,0-0.38,2.77-0.84
				c0.46-3.41,0.61-3.41,0.85-3.41s0.39,0,0.85,3.41c2.77,0.46,2.77,0.62,2.77,0.84c0,0.23,0,0.38-2.77,0.84
				C74.5,107.87,74.35,107.87,74.11,107.87z M71.52,103.62c0.52,0.12,1.29,0.26,2,0.38l0.18,0.03l0.03,0.18
				c0.12,0.87,0.26,1.81,0.38,2.45c0.12-0.65,0.26-1.58,0.38-2.45l0.03-0.18L74.7,104c0.71-0.12,1.48-0.26,2-0.38
				c-0.52-0.12-1.29-0.26-2-0.38l-0.18-0.03l-0.03-0.18c-0.12-0.87-0.26-1.81-0.38-2.45c-0.12,0.65-0.26,1.58-0.38,2.45l-0.03,0.18
				l-0.18,0.03C72.81,103.36,72.04,103.5,71.52,103.62z"/>
		</g>
		<g>
			<path class="st2" d="M107.38,106.67c0,0,2.4-0.4,2.4-0.55c0-0.15-2.4-0.55-2.4-0.55s-0.4-2.95-0.55-2.95s-0.55,2.95-0.55,2.95
				s-2.4,0.4-2.4,0.55c0,0.15,2.4,0.55,2.4,0.55s0.4,2.95,0.55,2.95S107.38,106.67,107.38,106.67z"/>
			<path class="st2" d="M106.83,109.87c-0.24,0-0.37,0-0.77-2.99c-2.43-0.41-2.43-0.54-2.43-0.76s0-0.36,2.43-0.77
				c0.41-2.98,0.53-2.98,0.77-2.98c0.24,0,0.37,0,0.77,2.98c2.43,0.41,2.43,0.54,2.43,0.77s0,0.36-2.43,0.76
				C107.19,109.87,107.07,109.87,106.83,109.87z M104.71,106.12c0.45,0.1,1.06,0.21,1.61,0.3l0.18,0.03l0.02,0.18
				c0.09,0.69,0.2,1.42,0.3,1.97c0.1-0.55,0.21-1.29,0.3-1.97l0.03-0.18l0.18-0.03c0.55-0.09,1.16-0.2,1.61-0.3
				c-0.45-0.1-1.06-0.21-1.61-0.3l-0.18-0.03l-0.03-0.18c-0.09-0.69-0.2-1.42-0.3-1.97c-0.1,0.55-0.21,1.29-0.3,1.97l-0.02,0.18
				l-0.18,0.03C105.77,105.91,105.16,106.02,104.71,106.12z"/>
		</g>
		<g>
			<path class="st2" d="M101.02,94.38c0,0,1.37-0.23,1.37-0.31c0-0.09-1.37-0.31-1.37-0.31s-0.23-1.69-0.31-1.69
				s-0.31,1.69-0.31,1.69s-1.37,0.23-1.37,0.31c0,0.09,1.37,0.31,1.37,0.31s0.23,1.69,0.31,1.69S101.02,94.38,101.02,94.38z"/>
			<path class="st2" d="M100.7,96.32c-0.23,0-0.3,0-0.54-1.72c-1.4-0.24-1.4-0.32-1.4-0.53c0-0.21,0-0.29,1.4-0.53
				c0.24-1.72,0.31-1.72,0.54-1.72c0.23,0,0.3,0,0.54,1.72c1.4,0.24,1.4,0.32,1.4,0.53c0,0.21,0,0.29-1.4,0.53
				C101,96.32,100.93,96.32,100.7,96.32z M100.04,94.07c0.13,0.02,0.26,0.05,0.39,0.07l0.18,0.03l0.03,0.18
				c0.02,0.15,0.04,0.31,0.07,0.47c0.02-0.16,0.04-0.31,0.07-0.47l0.03-0.18l0.18-0.03c0.12-0.02,0.26-0.04,0.39-0.07
				c-0.13-0.02-0.26-0.05-0.39-0.07l-0.18-0.03l-0.03-0.18c-0.02-0.15-0.04-0.31-0.07-0.47c-0.02,0.16-0.05,0.31-0.07,0.47
				l-0.03,0.18L100.43,94C100.3,94.02,100.17,94.05,100.04,94.07z"/>
		</g>
	</g>
</g>
<g id="Border">
	<path class="st5" d="M142,26c1.1,0,2,0.9,2,2v72c0,29.78-24.22,54-54,54c-29.76,0-53.97-24.19-54-53.94V100V28c0-1.1,0.9-2,2-2H142
		 M142,18H38c-5.52,0-10,4.48-10,10v72c0,0,0,0,0,0c0,34.24,27.76,62,62,62s62-27.76,62-62V28C152,22.48,147.52,18,142,18L142,18z"
		/>
	<path class="st2" d="M142,23c2.76,0,5,2.24,5,5v72c0,31.43-25.57,57-57,57c-31.4,0-56.96-25.53-57-56.92V100V28c0-2.76,2.24-5,5-5
		H142 M142,18H38c-5.52,0-10,4.48-10,10v72c0,0,0,0,0,0c0,34.24,27.76,62,62,62s62-27.76,62-62V28C152,22.48,147.52,18,142,18
		L142,18z"/>
	<path class="st9" d="M165,18"/>
	<g>
		<path class="st2" d="M44.16,34.31h-3.04v-2.63h9.33v2.63h-3.04V43h-3.25V34.31z"/>
		<path class="st2" d="M63.06,31.68h3.25v4.18h4.01v-4.18h3.23V43h-3.23v-4.5h-4.01V43h-3.25V31.68z"/>
		<path class="st2" d="M87.32,31.68h3.26V43h-3.26V31.68z"/>
		<path class="st2" d="M104.51,31.68h3.28l3.09,4.44c0.8,1.14,1.27,2.02,1.31,2.09h0.03c-0.02-0.08-0.07-1.07-0.07-1.97v-4.56h2.92
			V43h-2.96l-3.47-4.88c-0.83-1.16-1.17-1.77-1.24-1.89h-0.03c0,0.1,0.05,0.87,0.05,1.72V43h-2.92V31.68z"/>
		<path class="st2" d="M128.75,31.68H132v4.45l3.26-4.45h3.52l-3.86,5.18l3.96,6.14h-3.77L132,38.12V43h-3.25V31.68z"/>
	</g>
	<g>
		<path class="st2" d="M43.28,49.96c0,0.03-0.01,0.06-0.03,0.08c-0.02,0.02-0.05,0.03-0.08,0.03h-0.85c-0.03,0-0.06,0.01-0.08,0.03
			c-0.02,0.02-0.03,0.05-0.03,0.08v2.96c0,0.03-0.01,0.06-0.03,0.08c-0.02,0.02-0.05,0.03-0.08,0.03h-0.83
			c-0.03,0-0.06-0.01-0.08-0.03c-0.02-0.02-0.03-0.05-0.03-0.08v-2.96c0-0.03-0.01-0.06-0.03-0.08c-0.02-0.02-0.05-0.03-0.08-0.03
			h-0.85c-0.03,0-0.06-0.01-0.08-0.03c-0.02-0.02-0.03-0.05-0.03-0.08v-0.79c0-0.08,0.04-0.11,0.11-0.11h0.85h0.22h0.83h0.22h0.85
			c0.03,0,0.06,0.01,0.08,0.03c0.02,0.02,0.03,0.05,0.03,0.08V49.96z"/>
		<path class="st2" d="M45.91,50.1c-0.02,0.02-0.03,0.05-0.03,0.08v1.94c0,0.03,0.01,0.06,0.03,0.08c0.02,0.02,0.05,0.03,0.08,0.03
			h1.93c0.03,0,0.06,0.01,0.08,0.03c0.02,0.02,0.03,0.05,0.03,0.08v0.79c0,0.03-0.01,0.06-0.03,0.08c-0.02,0.02-0.05,0.03-0.08,0.03
			h-1.84H45.7h-0.08c-0.03,0-0.07,0-0.11-0.01s-0.07-0.02-0.1-0.04l-0.55-0.55c-0.02-0.03-0.03-0.06-0.04-0.1
			c-0.01-0.04-0.01-0.08-0.01-0.11V52.4v-0.64v-1.43v-0.32v-0.16c0-0.03,0-0.07,0.01-0.11c0.01-0.04,0.02-0.07,0.04-0.1l0.55-0.55
			c0.03-0.01,0.06-0.02,0.09-0.03c0.03-0.01,0.05-0.02,0.07-0.02h0.05h0.08h0.02h0.01h0.14h2.03c0.03,0,0.06,0.01,0.08,0.03
			c0.02,0.02,0.03,0.05,0.03,0.08v0.79c0,0.03-0.01,0.06-0.03,0.08c-0.02,0.02-0.05,0.03-0.08,0.03h-1.93
			C45.95,50.07,45.93,50.08,45.91,50.1z"/>
		<path class="st2" d="M51.34,51.73c0,0.03-0.01,0.06-0.03,0.08c-0.02,0.02-0.05,0.03-0.08,0.03h-1.3c-0.03,0-0.06-0.01-0.08-0.03
			c-0.02-0.02-0.03-0.05-0.03-0.08v-0.79c0-0.08,0.04-0.11,0.11-0.11h1.3c0.03,0,0.06,0.01,0.08,0.03c0.02,0.02,0.03,0.05,0.03,0.08
			V51.73z"/>
		<path class="st2" d="M56.6,49.65c0.01,0.03,0.02,0.06,0.03,0.1c0.01,0.04,0.01,0.08,0.01,0.11v0.11v2.15v0.31
			c0,0.03,0,0.07-0.01,0.11c-0.01,0.04-0.02,0.07-0.03,0.1l-0.55,0.55c-0.03,0.02-0.06,0.03-0.11,0.04s-0.08,0.01-0.11,0.01h-0.13
			h-1.45h-0.32c-0.03,0-0.07,0-0.11-0.01s-0.07-0.02-0.1-0.04l-0.55-0.55c-0.02-0.03-0.03-0.06-0.04-0.1
			c-0.01-0.04-0.01-0.08-0.01-0.11v-0.13v-2.14v-0.31c0-0.03,0-0.07,0.01-0.11c0.01-0.04,0.02-0.07,0.04-0.1l0.55-0.55
			c0.03-0.01,0.06-0.02,0.1-0.03c0.04-0.01,0.08-0.02,0.11-0.02h0.26h1.26h0.38c0.03,0,0.07,0,0.11,0.02
			c0.04,0.01,0.08,0.02,0.11,0.03L56.6,49.65z M55.58,50.07h-1.41v2.17h1.41V50.07z"/>
		<path class="st2" d="M61.59,49.65c0.01,0.03,0.02,0.06,0.03,0.1s0.02,0.08,0.02,0.11v0.17v1.09v0.11c0,0.03-0.01,0.07-0.02,0.11
			s-0.02,0.08-0.03,0.11L61.04,52c-0.03,0.01-0.06,0.02-0.1,0.03s-0.08,0.01-0.11,0.01h-0.17h-0.44H59.6
			c-0.03,0-0.06,0.01-0.08,0.03c-0.02,0.02-0.03,0.05-0.03,0.08v0.98c0,0.08-0.04,0.11-0.11,0.11h-0.83c-0.08,0-0.11-0.04-0.11-0.11
			v-0.58v-2.48v-0.91c0-0.03,0.01-0.06,0.03-0.08c0.02-0.02,0.05-0.03,0.08-0.03h1.83h0.31h0.14c0.03,0,0.07,0,0.11,0.02
			c0.04,0.01,0.08,0.02,0.1,0.03L61.59,49.65z M60.62,51.07V50h-1.18v1.06H60.62z"/>
		<path class="st2" d="M66.35,51.43c0.01,0.04,0.01,0.08,0.01,0.11v0.17v0.44v0.29c0,0.03,0,0.07-0.01,0.11
			c-0.01,0.04-0.02,0.07-0.03,0.1l-0.55,0.55c-0.03,0.02-0.06,0.03-0.11,0.04s-0.08,0.01-0.11,0.01h-0.13h-1.36h-0.79
			c-0.08,0-0.11-0.04-0.11-0.11v-0.73c0-0.03,0.01-0.06,0.03-0.08c0.02-0.02,0.05-0.03,0.08-0.03h0.95h0.52h0.57
			c0.03,0,0.06-0.01,0.08-0.03c0.02-0.02,0.03-0.05,0.03-0.08v-0.5c0-0.03-0.01-0.06-0.03-0.08c-0.02-0.02-0.05-0.03-0.08-0.03
			h-0.54h-0.72h-0.08c-0.03,0-0.07,0-0.11-0.01c-0.04-0.01-0.07-0.02-0.1-0.03l-0.55-0.55c-0.02-0.03-0.03-0.07-0.04-0.11
			c-0.01-0.04-0.01-0.08-0.01-0.11v-0.11v-0.68v-0.11c0-0.03,0-0.07,0.01-0.11c0.01-0.04,0.02-0.07,0.04-0.1l0.55-0.55
			c0.03-0.01,0.06-0.02,0.1-0.03c0.04-0.01,0.08-0.02,0.11-0.02h0.11h1.67h0.37c0.03,0,0.06,0.01,0.08,0.03
			c0.02,0.02,0.03,0.05,0.03,0.08v0.74c0,0.03-0.01,0.06-0.03,0.08c-0.02,0.02-0.05,0.03-0.08,0.03H65.7h-1.1h-0.39
			c-0.03,0-0.06,0.01-0.08,0.03c-0.02,0.02-0.03,0.05-0.03,0.08v0.49c0,0.03,0.01,0.06,0.03,0.08c0.02,0.02,0.05,0.03,0.08,0.03
			h0.38h0.82h0.14c0.03,0,0.07,0,0.11,0.01s0.08,0.02,0.11,0.03l0.55,0.55C66.33,51.35,66.34,51.39,66.35,51.43z"/>
	</g>
	<g>
		<path class="st2" d="M105.82,50.06v0.65c0,0.02,0.01,0.02,0.03,0.02h0.51h0.55h0.65c0.03,0,0.06,0.01,0.08,0.03
			c0.02,0.02,0.03,0.05,0.03,0.08v0.6c0,0.08-0.04,0.11-0.11,0.11h-0.61h-0.48h-0.62c-0.02,0-0.03,0.01-0.03,0.03v0.65
			c0,0.02,0.01,0.03,0.03,0.03h0.48h0.68h0.85c0.03,0,0.06,0.01,0.08,0.03c0.02,0.02,0.03,0.05,0.03,0.08v0.75
			c0,0.03-0.01,0.06-0.03,0.08c-0.02,0.02-0.05,0.03-0.08,0.03h-0.64h-1.46h-0.19c-0.03,0-0.07,0-0.11-0.01s-0.07-0.02-0.1-0.04
			l-0.55-0.55c-0.02-0.03-0.03-0.06-0.04-0.1c-0.01-0.04-0.01-0.08-0.01-0.11v-0.19v-2.03v-0.37c0-0.03,0-0.07,0.01-0.11
			c0.01-0.04,0.02-0.07,0.04-0.1l0.55-0.55c0.03-0.01,0.06-0.02,0.1-0.03c0.04-0.01,0.08-0.02,0.11-0.02h0.14h1.66h0.48
			c0.03,0,0.06,0.01,0.08,0.03c0.02,0.02,0.03,0.05,0.03,0.08v0.76c0,0.03-0.01,0.06-0.03,0.08c-0.02,0.02-0.05,0.03-0.08,0.03
			h-0.46h-0.95h-0.59C105.83,50.03,105.82,50.04,105.82,50.06z"/>
		<path class="st2" d="M112.71,51.43c0.01,0.04,0.01,0.08,0.01,0.11v0.17v0.44v0.29c0,0.03,0,0.07-0.01,0.11
			c-0.01,0.04-0.02,0.07-0.03,0.1l-0.55,0.55c-0.03,0.02-0.06,0.03-0.11,0.04s-0.08,0.01-0.11,0.01h-0.13h-1.36h-0.79
			c-0.08,0-0.11-0.04-0.11-0.11v-0.73c0-0.03,0.01-0.06,0.03-0.08c0.02-0.02,0.05-0.03,0.08-0.03h0.95h0.52h0.57
			c0.03,0,0.06-0.01,0.08-0.03c0.02-0.02,0.03-0.05,0.03-0.08v-0.5c0-0.03-0.01-0.06-0.03-0.08c-0.02-0.02-0.05-0.03-0.08-0.03
			h-0.54h-0.72h-0.08c-0.03,0-0.07,0-0.11-0.01c-0.04-0.01-0.07-0.02-0.1-0.03l-0.55-0.55c-0.02-0.03-0.03-0.07-0.04-0.11
			c-0.01-0.04-0.01-0.08-0.01-0.11v-0.11v-0.68v-0.11c0-0.03,0-0.07,0.01-0.11c0.01-0.04,0.02-0.07,0.04-0.1l0.55-0.55
			c0.03-0.01,0.06-0.02,0.1-0.03c0.04-0.01,0.08-0.02,0.11-0.02h0.11h1.67h0.37c0.03,0,0.06,0.01,0.08,0.03
			c0.02,0.02,0.03,0.05,0.03,0.08v0.74c0,0.03-0.01,0.06-0.03,0.08c-0.02,0.02-0.05,0.03-0.08,0.03h-0.42h-1.1h-0.39
			c-0.03,0-0.06,0.01-0.08,0.03c-0.02,0.02-0.03,0.05-0.03,0.08v0.49c0,0.03,0.01,0.06,0.03,0.08c0.02,0.02,0.05,0.03,0.08,0.03
			h0.38h0.82h0.14c0.03,0,0.07,0,0.11,0.01s0.08,0.02,0.11,0.03l0.55,0.55C112.68,51.35,112.69,51.39,112.71,51.43z"/>
		<path class="st2" d="M117.2,49.96c0,0.03-0.01,0.06-0.03,0.08c-0.02,0.02-0.05,0.03-0.08,0.03h-0.85c-0.03,0-0.06,0.01-0.08,0.03
			c-0.02,0.02-0.03,0.05-0.03,0.08v2.96c0,0.03-0.01,0.06-0.03,0.08c-0.02,0.02-0.05,0.03-0.08,0.03h-0.83
			c-0.03,0-0.06-0.01-0.08-0.03c-0.02-0.02-0.03-0.05-0.03-0.08v-2.96c0-0.03-0.01-0.06-0.03-0.08c-0.02-0.02-0.05-0.03-0.08-0.03
			h-0.85c-0.03,0-0.06-0.01-0.08-0.03c-0.02-0.02-0.03-0.05-0.03-0.08v-0.79c0-0.08,0.04-0.11,0.11-0.11h0.85h0.22h0.83h0.22h0.85
			c0.03,0,0.06,0.01,0.08,0.03c0.02,0.02,0.03,0.05,0.03,0.08V49.96z"/>
		<path class="st2" d="M119.58,52.31v0.83c0,0.08-0.04,0.11-0.11,0.11h-0.83c-0.08,0-0.11-0.04-0.11-0.11v-0.83
			c0-0.08,0.04-0.11,0.11-0.11h0.83C119.54,52.19,119.58,52.23,119.58,52.31z"/>
		<path class="st2" d="M126.91,50.05v0.9v0.52c0,0.03-0.01,0.06-0.03,0.08c-0.02,0.02-0.05,0.03-0.08,0.03h-0.58h-1.21h-0.23
			c-0.06,0-0.09,0.03-0.11,0.1v0.53c0.01,0.06,0.05,0.09,0.11,0.09h0.15h1.37h0.5c0.03,0,0.06,0.01,0.08,0.03
			c0.02,0.02,0.03,0.05,0.03,0.08v0.73c0,0.03-0.01,0.06-0.03,0.08c-0.02,0.02-0.05,0.03-0.08,0.03h-0.95h-0.97h-0.44h-0.01h-0.58
			c-0.08,0-0.11-0.04-0.11-0.11v-0.58v-0.01v-0.34v-0.53v-0.23c0-0.02,0.02-0.06,0.05-0.13l0.55-0.55c0.03-0.01,0.06-0.02,0.1-0.03
			s0.08-0.01,0.11-0.01h0.09h0.8h0.42c0.03,0,0.06-0.01,0.08-0.03c0.02-0.02,0.03-0.05,0.03-0.08v-0.49c0-0.03-0.01-0.06-0.03-0.08
			c-0.02-0.02-0.05-0.03-0.08-0.03h-0.91h-0.56h-0.41c-0.03,0-0.06-0.01-0.08-0.03c-0.02-0.02-0.03-0.05-0.03-0.08v-0.74
			c0-0.03,0.01-0.06,0.03-0.08c0.02-0.02,0.05-0.03,0.08-0.03h0.25h1.59h0.29c0.03,0,0.07,0,0.11,0.02
			c0.04,0.01,0.08,0.02,0.11,0.03l0.55,0.55c0.03,0.06,0.04,0.1,0.04,0.11v0.08v0.06c0,0.01,0,0.02,0.01,0.02v0.01V50.05z"/>
		<path class="st2" d="M131.6,49.65c0.01,0.03,0.02,0.06,0.03,0.1c0.01,0.04,0.01,0.08,0.01,0.11v0.26v2.2v0.12
			c0,0.03,0,0.07-0.01,0.11c-0.01,0.04-0.02,0.07-0.03,0.1l-0.55,0.55c-0.03,0.02-0.06,0.03-0.11,0.04s-0.08,0.01-0.11,0.01h-0.14
			h-1.38h-0.07c-0.03,0-0.07,0-0.11-0.01s-0.07-0.02-0.1-0.04l-0.55-0.55c-0.02-0.03-0.03-0.06-0.04-0.1
			c-0.01-0.04-0.01-0.08-0.01-0.11v-0.16v-2.34v-0.08c0-0.03,0-0.07,0.01-0.11c0.01-0.04,0.02-0.07,0.04-0.1l0.55-0.55
			c0.03-0.01,0.06-0.02,0.1-0.03c0.04-0.01,0.08-0.02,0.11-0.02h0.19h1.17h0.23c0.03,0,0.07,0,0.11,0.02
			c0.04,0.01,0.08,0.02,0.11,0.03L131.6,49.65z M129.45,52.24h1.18v-2.17h-1.18V52.24z"/>
		<path class="st2" d="M134.47,49.16v3.97c0,0.08-0.04,0.11-0.11,0.11h-0.83c-0.08,0-0.11-0.04-0.11-0.11v-2.96
			c0-0.02-0.01-0.02-0.03-0.02c-0.02,0-0.04,0.01-0.06,0.03l-0.29,0.23c-0.02,0.02-0.04,0.03-0.06,0.01
			c-0.02-0.01-0.03-0.03-0.03-0.06v-0.84c0-0.03,0.01-0.07,0.03-0.1c0.02-0.03,0.04-0.06,0.06-0.08l0.29-0.23
			c0.02-0.02,0.06-0.04,0.1-0.05c0.04-0.01,0.08-0.02,0.11-0.02h0.14h0.69C134.44,49.05,134.47,49.09,134.47,49.16z"/>
		<path class="st2" d="M135.81,51.44c-0.02-0.03-0.03-0.06-0.04-0.11c-0.01-0.04-0.01-0.08-0.01-0.11v-0.11v-1.25v-0.01
			c0-0.03,0-0.07,0.02-0.1c0.01-0.04,0.02-0.07,0.03-0.09l0.55-0.55c0.03-0.01,0.06-0.02,0.1-0.03c0.04-0.01,0.08-0.02,0.11-0.02
			h0.16h0.86h0.11h0.11h0.14h0.24v0.01c0.06,0.01,0.12,0.02,0.17,0.04l0.55,0.55c0.01,0.03,0.02,0.06,0.03,0.1s0.01,0.08,0.01,0.11
			v0.05v1.16v2.06c0,0.03-0.01,0.06-0.03,0.08c-0.02,0.02-0.05,0.03-0.08,0.03h-0.83c-0.03,0-0.06-0.01-0.08-0.03
			c-0.02-0.02-0.03-0.05-0.03-0.08v-0.98c0-0.03-0.01-0.06-0.03-0.08c-0.02-0.02-0.05-0.03-0.08-0.03h-0.71h-0.3h-0.22
			c-0.03,0-0.07,0-0.11-0.01s-0.07-0.02-0.1-0.03L135.81,51.44z M137.95,50h-1.18v1.06h1.18V50z"/>
	</g>
	<g>
		<path class="st2" d="M51.07,126.74l0.7,0.94l-1.21,1.72c-0.17,0.24-0.37,0.48-0.39,0.5l0.01,0.01c0.02-0.01,0.32-0.13,0.59-0.23
			l1.98-0.7l0.66,0.88l-3.89,1.15l-0.62-0.82L51.07,126.74z"/>
		<path class="st2" d="M53.78,130.25l1.58,1.79l-0.66,0.58l-0.87-0.99l-0.43,0.38l0.76,0.87l-0.62,0.54l-0.76-0.87l-0.48,0.42
			L53.2,134l-0.67,0.58l-1.6-1.82L53.78,130.25z"/>
		<path class="st2" d="M55.9,132.66l0.79,0.77l-0.29,1.79c-0.07,0.46-0.17,0.78-0.17,0.81l0.01,0.01c0.02-0.02,0.23-0.27,0.44-0.49
			l1.06-1.1l0.7,0.68l-2.64,2.72l-0.71-0.69l0.3-1.98c0.07-0.47,0.13-0.7,0.14-0.74l-0.01-0.01c-0.02,0.03-0.19,0.22-0.39,0.43
			l-1.18,1.21l-0.7-0.68L55.9,132.66z"/>
		<path class="st2" d="M59.2,135.74l0.84,0.71l-2.45,2.91l-0.84-0.71L59.2,135.74z"/>
		<path class="st2" d="M60.99,137.26l0.86,0.62L61.11,140c-0.08,0.23-0.23,0.57-0.23,0.59l0.01,0.01c0.02-0.02,0.29-0.25,0.49-0.4
			l1.8-1.36l0.86,0.62l-1.79,3.38l-0.9-0.65l0.76-1.36c0.14-0.25,0.26-0.47,0.28-0.5l-0.01-0.01c-0.03,0.03-0.22,0.2-0.44,0.37
			l-1.27,1.01l-0.87-0.63l0.56-1.51c0.09-0.23,0.2-0.5,0.22-0.53l-0.01-0.01c-0.02,0.03-0.2,0.25-0.37,0.44l-1.06,1.14l-0.79-0.57
			L60.99,137.26z"/>
		<path class="st2" d="M63.75,141.97L64.9,140l0.94,0.55l-1.11,1.91c-0.27,0.46-0.25,0.75,0.19,1.01c0.4,0.24,0.67,0.09,0.92-0.33
			l1.12-1.93l0.86,0.5l-1.09,1.88c-0.56,0.97-1.35,1.17-2.28,0.63C63.47,143.64,63.21,142.9,63.75,141.97z"/>
		<path class="st2" d="M66.8,145.1l0.71-0.49c0.05,0.08,0.24,0.39,0.59,0.56c0.29,0.14,0.46,0.11,0.54-0.05
			c0.1-0.22-0.23-0.39-0.53-0.79c-0.32-0.41-0.44-0.83-0.17-1.39c0.29-0.61,0.99-0.77,1.67-0.44c0.6,0.29,0.83,0.62,0.93,0.82
			l-0.69,0.5c-0.09-0.12-0.3-0.39-0.54-0.5c-0.23-0.11-0.37-0.1-0.46,0.07c-0.1,0.21,0.15,0.37,0.44,0.71
			c0.36,0.42,0.6,0.81,0.31,1.42c-0.33,0.69-1,0.86-1.84,0.46C67.19,145.69,66.91,145.3,66.8,145.1z"/>
		<path class="st2" d="M72.21,143.77l1.1,0.4l-0.06,2.1c-0.01,0.3-0.04,0.61-0.05,0.63l0.01,0c0.01-0.02,0.19-0.28,0.37-0.52
			l1.27-1.67l1.03,0.37l-2.62,3.09l-0.96-0.35L72.21,143.77z"/>
		<path class="st2" d="M76.46,145.23l1.05,0.3l-1.05,3.65l-1.05-0.3L76.46,145.23z"/>
		<path class="st2" d="M78.48,145.82l1.33,0.28c1.45,0.31,1.98,1.18,1.75,2.25s-1.1,1.76-2.57,1.45l-1.29-0.28L78.48,145.82z
			 M79.24,148.98c0.65,0.14,1.03-0.15,1.18-0.83c0.15-0.69-0.09-1.06-0.77-1.2l-0.28-0.06l-0.43,2.03L79.24,148.98z"/>
		<path class="st2" d="M82.69,146.64l1.08,0.16l-0.54,3.76l-1.08-0.16L82.69,146.64z"/>
		<path class="st2" d="M85.04,146.98l1.06,0.07l0.49,2.19c0.05,0.24,0.11,0.6,0.11,0.62l0.01,0c0.01-0.02,0.12-0.37,0.21-0.6
			l0.8-2.11l1.06,0.07l0.28,3.82l-1.11-0.07l-0.08-1.55c-0.02-0.29-0.03-0.53-0.03-0.57l-0.01,0c-0.01,0.04-0.09,0.29-0.18,0.54
			l-0.54,1.53l-1.08-0.07l-0.33-1.58c-0.05-0.24-0.1-0.53-0.1-0.57l-0.01,0c0,0.04-0.04,0.32-0.08,0.57l-0.29,1.53l-0.97-0.06
			L85.04,146.98z"/>
		<path class="st2" d="M89.86,149.52l-0.07-2.28l1.09-0.03l0.07,2.21c0.02,0.54,0.18,0.77,0.7,0.75c0.47-0.01,0.62-0.28,0.6-0.77
			l-0.07-2.23l1-0.03l0.07,2.17c0.04,1.12-0.52,1.71-1.59,1.74C90.5,151.08,89.9,150.59,89.86,149.52z"/>
		<path class="st2" d="M94.09,150.56l0.34-0.79c0.09,0.04,0.41,0.21,0.8,0.17c0.32-0.03,0.45-0.15,0.43-0.33
			c-0.03-0.24-0.4-0.21-0.87-0.39c-0.49-0.18-0.81-0.47-0.88-1.09c-0.07-0.67,0.43-1.17,1.19-1.26c0.66-0.07,1.03,0.09,1.22,0.2
			l-0.32,0.79c-0.14-0.06-0.46-0.17-0.73-0.14c-0.25,0.03-0.37,0.11-0.35,0.29c0.02,0.23,0.32,0.23,0.75,0.37
			c0.52,0.17,0.94,0.37,1.01,1.04c0.08,0.76-0.4,1.26-1.32,1.36C94.73,150.86,94.29,150.67,94.09,150.56z"/>
		<path class="st2" d="M97.97,146.58l1.15-0.25l1.06,1.82c0.15,0.26,0.28,0.54,0.29,0.56l0.01,0c0-0.02,0.01-0.34,0.04-0.63
			l0.19-2.09l1.07-0.23l-0.59,4l-1,0.21L97.97,146.58z"/>
		<path class="st2" d="M102.92,147.81l-0.67-2.18l1.04-0.32l0.65,2.11c0.16,0.51,0.38,0.69,0.87,0.54c0.45-0.14,0.52-0.43,0.38-0.9
			l-0.66-2.14l0.95-0.29l0.64,2.08c0.33,1.07-0.05,1.79-1.08,2.1C103.95,149.14,103.23,148.83,102.92,147.81z"/>
		<path class="st2" d="M106.32,144.31l1.02-0.4l1.08,2.73l1.25-0.5l0.32,0.8l-2.27,0.9L106.32,144.31z"/>
		<path class="st2" d="M109.8,144.96c-0.46-0.93-0.15-2.12,1.11-2.73c0.56-0.27,0.96-0.32,1.3-0.27l-0.05,0.93
			c-0.22-0.03-0.52-0.02-0.87,0.15c-0.6,0.29-0.75,0.79-0.46,1.38c0.29,0.59,0.74,0.9,1.33,0.61c0.19-0.09,0.32-0.21,0.38-0.27
			l-0.22-0.46l-0.55,0.27l-0.36-0.74l1.48-0.72l0.85,1.74c-0.18,0.24-0.44,0.59-1.18,0.96C111.3,146.42,110.26,145.9,109.8,144.96z"
			/>
		<path class="st2" d="M113.75,140.79l0.89-0.54l3.24,2.48l-1.02,0.61l-0.43-0.37l-1.16,0.69l0.12,0.55l-0.94,0.57L113.75,140.79z
			 M115.75,142.4l-0.48-0.41c-0.27-0.22-0.47-0.46-0.49-0.48l-0.01,0.01c0.01,0.02,0.11,0.32,0.19,0.66l0.14,0.62L115.75,142.4z"/>
		<path class="st2" d="M115.77,139.58l0.96-0.68l1.7,1.25c0.24,0.18,0.48,0.38,0.49,0.4l0.01-0.01c-0.01-0.02-0.12-0.32-0.21-0.6
			l-0.65-1.99l0.89-0.64l1.06,3.91l-0.84,0.6L115.77,139.58z"/>
		<path class="st2" d="M119.39,136.91l0.85-0.69l2.41,2.94l-0.85,0.69L119.39,136.91z"/>
		<path class="st2" d="M121.25,135.4l0.77-0.73l1.95,1.12c0.21,0.13,0.52,0.33,0.54,0.34l0.01-0.01c-0.01-0.02-0.19-0.33-0.31-0.56
			l-1.01-2.02l0.77-0.73l3,2.38l-0.8,0.77l-1.2-1c-0.22-0.18-0.41-0.34-0.44-0.37l-0.01,0.01c0.02,0.03,0.15,0.26,0.28,0.5
			l0.76,1.43l-0.78,0.74l-1.38-0.83c-0.21-0.13-0.46-0.29-0.48-0.31l-0.01,0.01c0.03,0.03,0.21,0.25,0.36,0.44l0.93,1.25l-0.7,0.67
			L121.25,135.4z"/>
		<path class="st2" d="M126.37,133.56l-1.73-1.49l0.71-0.82l1.68,1.44c0.41,0.35,0.69,0.39,1.03,0c0.31-0.35,0.21-0.65-0.16-0.97
			l-1.69-1.46l0.65-0.76l1.64,1.42c0.85,0.73,0.91,1.54,0.21,2.35C127.96,134.14,127.19,134.26,126.37,133.56z"/>
		<path class="st2" d="M130,131.16l-0.35-0.79c0.09-0.04,0.43-0.16,0.66-0.48c0.19-0.26,0.2-0.44,0.05-0.54
			c-0.19-0.14-0.43,0.15-0.88,0.38c-0.47,0.24-0.9,0.28-1.4-0.09c-0.55-0.4-0.57-1.12-0.12-1.73c0.4-0.54,0.76-0.7,0.98-0.77
			l0.37,0.77c-0.14,0.06-0.44,0.22-0.59,0.44c-0.15,0.21-0.17,0.35-0.02,0.46c0.18,0.14,0.39-0.08,0.78-0.3
			c0.48-0.27,0.91-0.44,1.46-0.04c0.62,0.45,0.66,1.15,0.11,1.9C130.65,130.89,130.21,131.09,130,131.16z"/>
	</g>
</g>
<g id="Concepts">
</g>
</svg>
