<?xml version="1.0" encoding="UTF-8" standalone="no"?>
<svg
   xmlns:dc="http://purl.org/dc/elements/1.1/"
   xmlns:cc="http://creativecommons.org/ns#"
   xmlns:rdf="http://www.w3.org/1999/02/22-rdf-syntax-ns#"
   xmlns:svg="http://www.w3.org/2000/svg"
   xmlns="http://www.w3.org/2000/svg"
   xmlns:sodipodi="http://sodipodi.sourceforge.net/DTD/sodipodi-0.dtd"
   xmlns:inkscape="http://www.inkscape.org/namespaces/inkscape"
   inkscape:version="1.0beta2 (2b71d25, 2019-12-03)"
   height="144"
   width="124"
   sodipodi:docname="tc-ops-logo.svg"
   id="svg414"
   version="1.1">
  <metadata
     id="metadata418">
    <rdf:RDF>
      <cc:Work
         rdf:about="">
        <dc:format>image/svg+xml</dc:format>
        <dc:type
           rdf:resource="http://purl.org/dc/dcmitype/StillImage" />
        <dc:title>missionpatch_tc-ops</dc:title>
      </cc:Work>
    </rdf:RDF>
  </metadata>
  <sodipodi:namedview
     fit-margin-bottom="0"
     fit-margin-right="0"
     fit-margin-left="0"
     fit-margin-top="0"
     inkscape:current-layer="svg414"
     inkscape:window-maximized="0"
     inkscape:window-y="23"
     inkscape:window-x="0"
     inkscape:cy="76.848592"
     inkscape:cx="55.505143"
     inkscape:zoom="2.6775777"
     showgrid="false"
     id="namedview416"
     inkscape:window-height="711"
     inkscape:window-width="1370"
     inkscape:pageshadow="2"
     inkscape:pageopacity="0"
     guidetolerance="10"
     gridtolerance="10"
     objecttolerance="10"
     borderopacity="1"
     inkscape:document-rotation="0"
     bordercolor="#666666"
     pagecolor="#ffffff" />
  <defs
     id="defs248">
    <style
       id="style241">
            .a {
                fill: #fff;
            }

            .b {
                fill: #362d2c;
            }

            .c {
                mask: url(#a);
            }

            .d {
                fill: #eeb058;
            }

            .e {
                fill: #f9dd4e;
            }

            .f {
                fill: #1a1a1a;
            }

            .g {
                fill: #e6e6e6;
            }

            .h {
                fill: #ccc;
            }

            .i {
                fill: none;
                stroke: blue;
                stroke-miterlimit: 10;
            }

        </style>
    <mask
       maskUnits="userSpaceOnUse"
       height="223.684"
       width="204"
       y="0"
       x="0"
       id="a">
      <g
         id="g245"
         transform="translate(12,-18)">
        <path
           inkscape:connector-curvature="0"
           id="path243"
           d="M 142,18 H 38 A 10,10 0 0 0 28,28 v 72 a 62,62 0 0 0 124,0 V 28 A 10,10 0 0 0 142,18 Z"
           class="a" />
      </g>
    </mask>
  </defs>
  <title
     id="title250">missionpatch_tc-ops</title>
  <path
     inkscape:connector-curvature="0"
     id="path252"
     d="M 62,137 A 55.062,55.062 0 0 0 117,82 V 10 A 3,3 0 0 0 114,7 H 10 A 3,3 0 0 0 7,10 V 82.089 A 55.063,55.063 0 0 0 62,137 Z"
     class="b" />
  <g
     transform="translate(-40)"
     id="g262"
     mask="url(#a)"
     class="c">
    <path
       inkscape:connector-curvature="0"
       id="path254"
       transform="translate(12,-18)"
       d="m 175.05,86.858 -79,-34.821 a 15,15 0 0 0 -12.1,0 l -79,34.821 A 15,15 0 0 0 -4,100.584 v 22.1 a 15,15 0 0 0 20.4,13.994 l 73.6,-28.4 73.6,28.4 A 15,15 0 0 0 184,122.682 v -22.1 a 15,15 0 0 0 -8.95,-13.724 z"
       class="d" />
    <path
       inkscape:connector-curvature="0"
       id="path256"
       transform="translate(12,-18)"
       d="m 180.4,116.152 -79,-54.821 a 20,20 0 0 0 -22.8,0 l -79,54.821 A 20,20 0 0 0 -9,132.584 v 2.1 a 20,20 0 0 0 27.605,18.5 L 90,123.825 l 71.4,29.354 a 20,20 0 0 0 27.6,-18.5 v -2.1 a 20,20 0 0 0 -8.6,-16.427 z"
       class="e" />
    <path
       inkscape:connector-curvature="0"
       id="path258"
       transform="translate(12,-18)"
       d="m 183.636,158.954 -79,-84.822 a 20,20 0 0 0 -29.272,0 l -79,84.822 A 20,20 0 0 0 -9,172.585 v 2.1 a 20,20 0 0 0 32.407,15.687 L 90,137.7 156.593,190.37 A 20,20 0 0 0 189,174.682 v -2.1 a 20,20 0 0 0 -5.364,-13.628 z"
       class="a" />
    <path
       inkscape:connector-curvature="0"
       id="path260"
       transform="translate(12,-18)"
       d="m 187.785,203.313 -79,-111.822 a 23,23 0 0 0 -37.57,0 l -79,111.822 A 23.006,23.006 0 0 0 -12,216.585 v 2.1 a 23,23 0 0 0 40.242,15.222 L 90,163.952 151.758,233.905 A 23,23 0 0 0 192,218.683 v -2.1 a 23.006,23.006 0 0 0 -4.215,-13.27 z"
       class="f" />
  </g>
  <path
     inkscape:connector-curvature="0"
     id="path264"
     d="m 60.591,87.21 a 1.994,1.994 0 0 0 1.409,3.4 2.043,2.043 0 0 0 1.994,-1.993 1.994,1.994 0 0 0 -3.4,-1.41 z m 0,0"
     class="a" />
  <path
     inkscape:connector-curvature="0"
     id="path266"
     d="m 68.121,81.319 h 0.005 a 20.592,20.592 0 0 0 -6.12,-9.1 h -0.012 q -0.6,0.516 -1.159,1.074 a 20.566,20.566 0 0 0 -4.963,8.025 v 0 a 22.632,22.632 0 0 0 12.253,0 z"
     class="a" />
  <path
     inkscape:connector-curvature="0"
     id="path268"
     d="m 68.948,102.577 h 6.313 a 7.272,7.272 0 0 0 -5.56,-6.433 z m 0,0"
     class="a" />
  <path
     inkscape:connector-curvature="0"
     id="path270"
     d="m 50.845,98.068 a 7.26,7.26 0 0 0 -2.106,4.5 h 6.314 L 54.3,96.14 a 7.212,7.212 0 0 0 -3.454,1.928 z m 0,0"
     class="a" />
  <path
     inkscape:connector-curvature="0"
     id="path272"
     d="m 62,105.8 a 24.245,24.245 0 0 1 -3.439,-0.255 v 2.229 a 2,2 0 0 0 1.994,1.994 h 2.886 a 2,2 0 0 0 1.994,-2 v -2.227 A 24.341,24.341 0 0 1 62,105.8 Z"
     class="a" />
  <path
     inkscape:connector-curvature="0"
     id="path274"
     d="m 65.323,117.2 a 3.323,3.323 0 1 0 -6.646,0 c 0,1.289 1.858,4.678 3.323,7.02 1.467,-2.341 3.323,-5.732 3.323,-7.019 z m 0,0"
     class="e" />
  <path
     inkscape:connector-curvature="0"
     id="path276"
     d="m 70.459,113.671 a 0.665,0.665 0 0 1 -1.135,-0.47 v -3.987 a 0.665,0.665 0 0 1 1.329,0 v 3.986 a 0.664,0.664 0 0 1 -0.194,0.47 z m 0,0"
     class="a" />
  <path
     inkscape:connector-curvature="0"
     id="path278"
     d="m 74.688,110.382 a 0.665,0.665 0 0 1 -1.135,-0.47 v -3.987 a 0.665,0.665 0 0 1 1.329,0 v 3.987 a 0.664,0.664 0 0 1 -0.194,0.47 z m 0,0"
     class="a" />
  <path
     inkscape:connector-curvature="0"
     id="path280"
     d="m 70.458,116.994 a 0.664,0.664 0 0 1 -1.134,-0.47 v -0.665 a 0.665,0.665 0 1 1 1.329,0 v 0.664 a 0.665,0.665 0 0 1 -0.2,0.47 z m 0,0"
     class="a" />
  <path
     inkscape:connector-curvature="0"
     id="path282"
     d="m 54.012,114.141 a 0.664,0.664 0 0 1 -1.134,-0.47 v -3.987 a 0.665,0.665 0 0 1 1.33,0 v 3.987 a 0.661,0.661 0 0 1 -0.195,0.47 z m 0,0"
     class="a" />
  <path
     inkscape:connector-curvature="0"
     id="path284"
     d="m 50.253,110.382 a 0.664,0.664 0 0 1 -1.134,-0.47 v -3.987 a 0.665,0.665 0 0 1 1.329,0 v 3.987 a 0.662,0.662 0 0 1 -0.194,0.47 z m 0,0"
     class="a" />
  <path
     inkscape:connector-curvature="0"
     id="path286"
     d="m 54.012,117.464 a 0.665,0.665 0 0 1 -1.135,-0.47 v -0.665 a 0.665,0.665 0 1 1 1.329,0 v 0.664 a 0.664,0.664 0 0 1 -0.194,0.47 z m 0,0"
     class="a" />
  <path
     inkscape:connector-curvature="0"
     id="path288"
     d="m 68.524,82.648 -13.043,0.005 a 20.575,20.575 0 0 0 -0.533,7.6 l 1.588,13.573 a 24.084,24.084 0 0 0 10.928,0 l 1.589,-13.575 a 20.6,20.6 0 0 0 -0.529,-7.603 z m -5.859,18.207 a 0.665,0.665 0 1 1 -1.329,0 v -0.664 a 0.665,0.665 0 0 1 1.329,0 v 0.663 z m 0,-3.323 a 0.665,0.665 0 0 1 -1.329,0 v -2.658 a 0.665,0.665 0 0 1 1.329,0 z m -0.018,-5.655 a 3.324,3.324 0 1 1 2.674,-3.257 v 0 a 3.322,3.322 0 0 1 -2.673,3.257 z"
     class="a" />
  <path
     inkscape:connector-curvature="0"
     id="path290"
     d="m 68.524,82.648 h -6.53 V 85.3 a 3.317,3.317 0 0 1 3.328,3.323 v 0 a 3.313,3.313 0 0 1 -3.329,3.321 v 2.283 H 62 a 0.663,0.663 0 0 1 0.664,0.652 v 2.658 a 0.664,0.664 0 0 1 -0.665,0.653 h -0.007 v 1.354 H 62 a 0.664,0.664 0 0 1 0.665,0.653 v 0.663 a 0.663,0.663 0 0 1 -0.663,0.665 h -0.008 v 2.935 H 62 a 25.3,25.3 0 0 0 5.461,-0.627 L 69.05,90.258 a 20.6,20.6 0 0 0 -0.526,-7.61 z"
     class="g" />
  <path
     inkscape:connector-curvature="0"
     id="path292"
     d="m 65.323,117.2 a 3.321,3.321 0 0 0 -3.329,-3.337 V 124.21 L 62,124.219 c 1.467,-2.338 3.323,-5.729 3.323,-7.019 z"
     class="d" />
  <path
     inkscape:connector-curvature="0"
     id="path294"
     d="m 62,105.8 -0.009,0.256 v 3.712 h 1.449 a 2,2 0 0 0 1.994,-2 v -2.227 A 24.341,24.341 0 0 1 62,105.8 Z"
     class="g" />
  <path
     inkscape:connector-curvature="0"
     id="path296"
     d="m 63.994,88.62 a 1.98,1.98 0 0 0 -2,-1.989 v 3.981 H 62 a 2.043,2.043 0 0 0 1.994,-1.992 z"
     class="g" />
  <path
     inkscape:connector-curvature="0"
     id="path298"
     d="m 62,82.166 a 23.141,23.141 0 0 0 6.126,-0.845 h -0.008 0.005 a 20.592,20.592 0 0 0 -6.12,-9.1 h -0.012 v 9.944 z"
     class="g" />
  <path
     inkscape:connector-curvature="0"
     id="path300"
     d="m 73.964,110.526 a 0.664,0.664 0 0 0 0.918,-0.614 v -3.987 a 0.665,0.665 0 0 0 -1.329,0 v 3.987 a 0.668,0.668 0 0 0 0.411,0.614 z"
     class="g" />
  <path
     inkscape:connector-curvature="0"
     id="path302"
     d="m 69.324,116.524 a 0.665,0.665 0 0 0 1.329,0 v -0.664 a 0.665,0.665 0 1 0 -1.329,0 z"
     class="g" />
  <path
     inkscape:connector-curvature="0"
     id="path304"
     d="m 69.7,96.14 -0.753,6.437 H 75.26 A 7.272,7.272 0 0 0 69.7,96.14 Z"
     class="g" />
  <path
     inkscape:connector-curvature="0"
     id="path306"
     d="m 69.735,113.815 a 0.664,0.664 0 0 0 0.918,-0.614 v -3.987 a 0.665,0.665 0 0 0 -1.329,0 v 3.986 a 0.664,0.664 0 0 0 0.411,0.615 z"
     class="g" />
  <path
     inkscape:connector-curvature="0"
     id="path308"
     d="m 67.464,103.827 1.589,-13.575 a 20.6,20.6 0 0 0 -0.529,-7.6 l -2.931,0.18 c 0.175,0.652 0.334,1.311 0.458,1.973 a 85.935,85.935 0 0 1 0.663,19.182 c 0.274,-0.057 0.531,-0.111 0.75,-0.16 z"
     class="f" />
  <path
     inkscape:connector-curvature="0"
     id="path310"
     d="m 68.129,81.321 h -0.008 0.005 a 20.592,20.592 0 0 0 -6.12,-9.1 h -0.012 c 0,0 1.865,4.542 3.411,9.681 a 9.315,9.315 0 0 0 2.724,-0.581 z"
     class="f" />
  <path
     inkscape:connector-curvature="0"
     id="path312"
     d="m 67.464,103.827 1.589,-13.575 a 20.6,20.6 0 0 0 -0.529,-7.6 H 66.5 c 0.175,0.652 0.333,1.311 0.457,1.973 1.565,8.92 -0.241,19.34 -0.244,19.361 0.275,-0.056 0.532,-0.11 0.751,-0.159 z"
     class="h" />
  <path
     inkscape:connector-curvature="0"
     id="path314"
     d="m 68.129,81.321 h -0.008 0.005 a 20.592,20.592 0 0 0 -6.12,-9.1 h -0.012 a 45.735,45.735 0 0 1 4.254,9.538 18.984,18.984 0 0 0 1.881,-0.438 z"
     class="h" />
  <path
     inkscape:connector-curvature="0"
     id="path316"
     d="m 68.524,82.653 a 57.5,57.5 0 0 0 -13.043,0 24.1,24.1 0 0 0 13.043,0 z"
     class="f" />
  <path
     inkscape:connector-curvature="0"
     id="path318"
     d="m 46.738,86.249 a 15.7,15.7 0 0 0 2.745,-0.627 15.613,15.613 0 0 0 -2.745,-0.628 23.085,23.085 0 0 0 -0.627,-3.372 22.956,22.956 0 0 0 -0.628,3.372 15.613,15.613 0 0 0 -2.745,0.628 15.7,15.7 0 0 0 2.745,0.627 22.969,22.969 0 0 0 0.628,3.373 23.1,23.1 0 0 0 0.627,-3.373 z"
     class="a" />
  <path
     inkscape:connector-curvature="0"
     id="path320"
     d="m 46.11,89.872 c -0.24,0 -0.386,0 -0.849,-3.407 -2.773,-0.464 -2.773,-0.616 -2.773,-0.843 0,-0.227 0,-0.379 2.773,-0.845 0.463,-3.405 0.609,-3.405 0.849,-3.405 0.24,0 0.388,0 0.851,3.406 2.772,0.465 2.772,0.617 2.772,0.844 0,0.227 0,0.379 -2.772,0.843 -0.461,3.407 -0.61,3.407 -0.851,3.407 z m -2.589,-4.25 c 0.524,0.118 1.291,0.263 2,0.38 l 0.182,0.03 0.025,0.184 c 0.118,0.872 0.261,1.806 0.379,2.454 0.119,-0.647 0.263,-1.582 0.38,-2.454 L 46.513,86.032 46.7,86 c 0.712,-0.117 1.48,-0.262 2,-0.38 -0.524,-0.119 -1.292,-0.264 -2,-0.381 l -0.181,-0.03 -0.026,-0.184 c -0.117,-0.872 -0.261,-1.806 -0.38,-2.453 -0.118,0.647 -0.261,1.581 -0.379,2.453 l -0.025,0.184 -0.182,0.03 c -0.715,0.119 -1.482,0.261 -2.006,0.383 z"
     class="a" />
  <path
     inkscape:connector-curvature="0"
     id="path322"
     d="m 79.375,88.671 a 13.683,13.683 0 0 0 2.4,-0.549 13.683,13.683 0 0 0 -2.4,-0.549 20.124,20.124 0 0 0 -0.549,-2.951 20.124,20.124 0 0 0 -0.549,2.951 13.683,13.683 0 0 0 -2.4,0.549 13.683,13.683 0 0 0 2.4,0.549 20.124,20.124 0 0 0 0.549,2.951 20.124,20.124 0 0 0 0.549,-2.951 z"
     class="a" />
  <path
     inkscape:connector-curvature="0"
     id="path324"
     d="m 78.826,91.872 c -0.242,0 -0.366,0 -0.771,-2.985 -2.43,-0.408 -2.43,-0.543 -2.43,-0.765 0,-0.222 0,-0.357 2.43,-0.766 0.4,-2.984 0.529,-2.984 0.771,-2.984 0.242,0 0.365,0 0.772,2.984 2.429,0.409 2.429,0.544 2.429,0.766 0,0.222 0,0.357 -2.429,0.765 -0.407,2.985 -0.531,2.985 -0.772,2.985 z m -2.119,-3.75 c 0.453,0.1 1.061,0.211 1.611,0.3 l 0.183,0.03 0.024,0.184 c 0.092,0.687 0.2,1.423 0.3,1.974 0.1,-0.551 0.208,-1.287 0.3,-1.974 l 0.025,-0.184 0.182,-0.03 c 0.551,-0.091 1.158,-0.2 1.611,-0.3 -0.453,-0.1 -1.06,-0.211 -1.611,-0.3 l -0.182,-0.03 -0.025,-0.184 c -0.093,-0.687 -0.2,-1.422 -0.3,-1.974 -0.1,0.552 -0.209,1.287 -0.3,1.974 l -0.024,0.184 -0.183,0.03 c -0.55,0.089 -1.158,0.202 -1.611,0.3 z"
     class="a" />
  <path
     inkscape:connector-curvature="0"
     id="path326"
     d="m 73.016,76.384 a 7.888,7.888 0 0 0 1.372,-0.313 7.8,7.8 0 0 0 -1.372,-0.314 11.478,11.478 0 0 0 -0.314,-1.686 11.478,11.478 0 0 0 -0.314,1.686 7.8,7.8 0 0 0 -1.372,0.314 7.888,7.888 0 0 0 1.372,0.313 11.491,11.491 0 0 0 0.314,1.687 11.491,11.491 0 0 0 0.314,-1.687 z"
     class="a" />
  <path
     inkscape:connector-curvature="0"
     id="path328"
     d="m 72.7,78.32 c -0.226,0 -0.3,0 -0.537,-1.719 -1.4,-0.239 -1.4,-0.322 -1.4,-0.531 0,-0.209 0,-0.291 1.4,-0.529 0.236,-1.721 0.311,-1.721 0.537,-1.721 0.226,0 0.3,0 0.536,1.721 1.4,0.238 1.4,0.321 1.4,0.529 0,0.208 0,0.292 -1.4,0.531 C 73,78.32 72.929,78.32 72.7,78.32 Z m -0.659,-2.25 c 0.129,0.025 0.261,0.047 0.386,0.068 l 0.181,0.03 0.026,0.184 c 0.02,0.151 0.043,0.309 0.066,0.465 0.023,-0.156 0.045,-0.314 0.066,-0.465 l 0.025,-0.184 0.182,-0.03 c 0.125,-0.021 0.256,-0.043 0.385,-0.068 -0.129,-0.023 -0.26,-0.046 -0.385,-0.066 L 72.791,75.974 72.766,75.79 C 72.745,75.639 72.723,75.48 72.7,75.324 72.677,75.48 72.654,75.639 72.634,75.79 l -0.026,0.184 -0.181,0.03 c -0.127,0.02 -0.255,0.043 -0.384,0.066 z"
     class="a" />
  <path
     inkscape:connector-curvature="0"
     id="path330"
     d="m 114,8 a 2,2 0 0 1 2,2 V 82 A 54.000009,54.000009 0 0 1 8,82.061 V 10 a 2,2 0 0 1 2,-2 h 104 m 0,-8 H 10 A 10,10 0 0 0 0,10 v 72 a 62,62 0 0 0 124,0 V 10 A 10,10 0 0 0 114,0 Z"
     class="e" />
  <path
     inkscape:connector-curvature="0"
     id="path332"
     d="m 114,5 a 5.006,5.006 0 0 1 5,5 V 82 A 57.000014,57.000014 0 0 1 5,82.081 V 10 a 5.006,5.006 0 0 1 5,-5 h 104 m 0,-5 H 10 A 10,10 0 0 0 0,10 v 72 a 62,62 0 0 0 124,0 V 10 A 10,10 0 0 0 114,0 Z"
     class="a" />
  <path
     inkscape:connector-curvature="0"
     id="path334"
     d="M 137,0"
     class="i" />
  <path
     inkscape:connector-curvature="0"
     id="path336"
     d="m 16.16,16.313 h -3.043 v -2.634 h 9.332 v 2.634 H 19.406 V 25 H 16.16 Z"
     class="a" />
  <path
     inkscape:connector-curvature="0"
     id="path338"
     d="m 35.063,13.679 h 3.248 v 4.181 h 4.011 v -4.181 h 3.23 V 25 h -3.23 V 20.495 H 38.311 V 25 h -3.248 z"
     class="a" />
  <path
     inkscape:connector-curvature="0"
     id="path340"
     d="m 59.323,13.679 h 3.264 V 25 h -3.264 z"
     class="a" />
  <path
     inkscape:connector-curvature="0"
     id="path342"
     d="m 76.51,13.679 h 3.281 l 3.094,4.436 a 21.44,21.44 0 0 1 1.308,2.091 h 0.035 c -0.018,-0.085 -0.069,-1.07 -0.069,-1.972 v -4.555 h 2.924 V 25 h -2.958 l -3.468,-4.879 a 19.382,19.382 0 0 1 -1.24,-1.887 h -0.034 c 0,0.1 0.051,0.868 0.051,1.717 V 25 H 76.51 Z"
     class="a" />
  <path
     inkscape:connector-curvature="0"
     id="path344"
     d="M 100.751,13.679 H 104 v 4.454 l 3.264,-4.454 h 3.518 l -3.858,5.184 3.958,6.137 h -3.774 L 104,20.121 V 25 h -3.247 z"
     class="a" />
  <path
     inkscape:connector-curvature="0"
     id="path346"
     d="m 98.189,32.052 v 1.416 a 0.1,0.1 0 0 1 -0.033,0.078 0.114,0.114 0 0 1 -0.081,0.03 H 96.06 a 0.109,0.109 0 0 0 -0.109,0.1 v 0.534 a 0.1,0.1 0 0 0 0.109,0.09 h 2.015 a 0.1,0.1 0 0 1 0.078,0.033 0.112,0.112 0 0 1 0.031,0.081 v 0.726 a 0.112,0.112 0 0 1 -0.031,0.081 0.1,0.1 0 0 1 -0.078,0.033 H 95.124 A 0.1,0.1 0 0 1 95.01,35.14 v -1.696 a 0.368,0.368 0 0 1 0.048,-0.126 l 0.551,-0.552 a 0.554,0.554 0 0 1 0.1,-0.03 0.636,0.636 0 0 1 0.107,-0.012 h 1.315 a 0.112,0.112 0 0 0 0.081,-0.033 0.114,0.114 0 0 0 0.033,-0.081 v -0.486 a 0.1,0.1 0 0 0 -0.033,-0.078 0.118,0.118 0 0 0 -0.081,-0.03 H 95.25 a 0.109,0.109 0 0 1 -0.081,-0.033 0.106,0.106 0 0 1 -0.033,-0.081 v -0.738 a 0.106,0.106 0 0 1 0.033,-0.081 0.112,0.112 0 0 1 0.081,-0.033 h 2.124 a 0.449,0.449 0 0 1 0.107,0.015 1.02,1.02 0 0 1 0.109,0.033 l 0.552,0.552 a 0.518,0.518 0 0 1 0.042,0.114 v 0.144 a 0.043,0.043 0 0 0 0,0.024 v 0.12 z"
     class="a" />
  <path
     inkscape:connector-curvature="0"
     id="path348"
     d="m 103.115,31.65 a 0.682,0.682 0 0 1 0.033,0.1 0.45,0.45 0 0 1 0.015,0.108 v 2.58 a 0.45,0.45 0 0 1 -0.015,0.108 0.682,0.682 0 0 1 -0.033,0.1 l -0.552,0.552 a 0.34,0.34 0 0 1 -0.1,0.036 0.6,0.6 0 0 1 -0.11,0.012 h -1.584 a 0.558,0.558 0 0 1 -0.109,-0.012 0.339,0.339 0 0 1 -0.1,-0.036 L 100,34.65 a 0.369,0.369 0 0 1 -0.036,-0.1 0.556,0.556 0 0 1 -0.012,-0.108 V 31.86 a 0.556,0.556 0 0 1 0.012,-0.108 0.369,0.369 0 0 1 0.036,-0.1 l 0.552,-0.552 a 0.682,0.682 0 0 1 0.1,-0.033 0.451,0.451 0 0 1 0.109,-0.015 h 1.584 a 0.486,0.486 0 0 1 0.11,0.015 0.658,0.658 0 0 1 0.1,0.033 z m -2.148,2.586 h 1.177 V 32.07 h -1.177 z"
     class="a" />
  <path
     inkscape:connector-curvature="0"
     id="path350"
     d="m 106.234,31.164 v 3.972 a 0.1,0.1 0 0 1 -0.113,0.114 h -0.828 a 0.1,0.1 0 0 1 -0.114,-0.114 v -2.964 c 0,-0.016 -0.009,-0.023 -0.028,-0.021 a 0.13,0.13 0 0 0 -0.062,0.033 l -0.294,0.228 c -0.024,0.02 -0.045,0.026 -0.064,0.015 a 0.067,0.067 0 0 1 -0.026,-0.063 v -0.84 a 0.222,0.222 0 0 1 0.026,-0.1 0.283,0.283 0 0 1 0.064,-0.081 l 0.294,-0.228 a 0.27,0.27 0 0 1 0.1,-0.048 0.38,0.38 0 0 1 0.108,-0.018 h 0.828 a 0.1,0.1 0 0 1 0.109,0.115 z"
     class="a" />
  <path
     inkscape:connector-curvature="0"
     id="path352"
     d="m 107.807,33.444 a 0.34,0.34 0 0 1 -0.036,-0.105 0.6,0.6 0 0 1 -0.012,-0.111 v -1.38 a 0.415,0.415 0 0 1 0.015,-0.1 0.491,0.491 0 0 1 0.033,-0.093 l 0.552,-0.552 a 0.682,0.682 0 0 1 0.1,-0.033 0.45,0.45 0 0 1 0.108,-0.015 h 1.633 v 0.006 a 0.738,0.738 0 0 1 0.168,0.042 l 0.552,0.552 a 0.682,0.682 0 0 1 0.033,0.1 0.45,0.45 0 0 1 0.015,0.108 v 3.276 a 0.113,0.113 0 0 1 -0.115,0.114 h -0.833 a 0.113,0.113 0 0 1 -0.114,-0.114 v -0.984 a 0.11,0.11 0 0 0 -0.03,-0.078 0.107,0.107 0 0 0 -0.078,-0.03 h -1.23 a 0.45,0.45 0 0 1 -0.108,-0.015 0.583,0.583 0 0 1 -0.1,-0.033 z M 109.949,32 h -1.176 v 1.062 h 1.176 z"
     class="a" />
  <path
     inkscape:connector-curvature="0"
     id="path354"
     d="M 15.275,31.956 A 0.113,0.113 0 0 1 15.161,32.07 H 14.31 a 0.113,0.113 0 0 0 -0.081,0.03 0.1,0.1 0 0 0 -0.034,0.078 v 2.958 a 0.112,0.112 0 0 1 -0.03,0.081 0.1,0.1 0 0 1 -0.078,0.033 H 13.253 A 0.111,0.111 0 0 1 13.14,35.136 V 32.178 A 0.1,0.1 0 0 0 13.031,32.07 h -0.852 a 0.114,0.114 0 0 1 -0.114,-0.114 v -0.792 a 0.1,0.1 0 0 1 0.114,-0.114 h 2.982 a 0.114,0.114 0 0 1 0.081,0.033 0.11,0.11 0 0 1 0.033,0.081 z"
     class="a" />
  <path
     inkscape:connector-curvature="0"
     id="path356"
     d="m 17.905,32.1 a 0.1,0.1 0 0 0 -0.033,0.078 v 1.944 a 0.114,0.114 0 0 0 0.033,0.081 0.112,0.112 0 0 0 0.081,0.033 h 1.926 a 0.114,0.114 0 0 1 0.081,0.03 0.1,0.1 0 0 1 0.033,0.078 v 0.792 a 0.106,0.106 0 0 1 -0.033,0.081 0.109,0.109 0 0 1 -0.081,0.033 h -2.285 a 0.556,0.556 0 0 1 -0.108,-0.012 0.346,0.346 0 0 1 -0.1,-0.036 L 16.867,34.65 a 0.4,0.4 0 0 1 -0.036,-0.1 0.556,0.556 0 0 1 -0.012,-0.108 V 31.86 a 0.556,0.556 0 0 1 0.012,-0.108 0.4,0.4 0 0 1 0.036,-0.1 L 17.419,31.1 c 0.028,-0.012 0.058,-0.023 0.088,-0.033 a 0.234,0.234 0 0 1 0.068,-0.015 h 2.34 a 0.112,0.112 0 0 1 0.081,0.033 0.106,0.106 0 0 1 0.033,0.081 v 0.792 a 0.106,0.106 0 0 1 -0.033,0.081 0.109,0.109 0 0 1 -0.081,0.033 H 17.986 A 0.118,0.118 0 0 0 17.905,32.1 Z"
     class="a" />
  <path
     inkscape:connector-curvature="0"
     id="path358"
     d="m 23.344,33.726 a 0.113,0.113 0 0 1 -0.115,0.114 h -1.3 a 0.109,0.109 0 0 1 -0.081,-0.033 0.11,0.11 0 0 1 -0.033,-0.081 v -0.792 a 0.1,0.1 0 0 1 0.114,-0.114 h 1.3 a 0.113,0.113 0 0 1 0.115,0.114 z"
     class="a" />
  <path
     inkscape:connector-curvature="0"
     id="path360"
     d="m 28.6,31.65 a 1.031,1.031 0 0 1 0.033,0.1 0.445,0.445 0 0 1 0.014,0.108 v 2.58 a 0.445,0.445 0 0 1 -0.014,0.108 1.031,1.031 0 0 1 -0.033,0.1 l -0.552,0.552 a 0.346,0.346 0 0 1 -0.106,0.036 0.6,0.6 0 0 1 -0.111,0.012 h -1.9 a 0.558,0.558 0 0 1 -0.109,-0.012 0.323,0.323 0 0 1 -0.1,-0.036 l -0.553,-0.552 a 0.339,0.339 0 0 1 -0.035,-0.1 0.494,0.494 0 0 1 -0.013,-0.108 V 31.86 a 0.494,0.494 0 0 1 0.013,-0.108 0.339,0.339 0 0 1 0.035,-0.1 L 25.722,31.1 a 0.63,0.63 0 0 1 0.1,-0.033 0.451,0.451 0 0 1 0.109,-0.015 h 1.9 a 0.487,0.487 0 0 1 0.111,0.015 0.673,0.673 0 0 1 0.106,0.033 z m -1.015,0.42 h -1.409 v 2.166 h 1.409 z"
     class="a" />
  <path
     inkscape:connector-curvature="0"
     id="path362"
     d="m 33.592,31.65 a 0.682,0.682 0 0 1 0.033,0.1 0.455,0.455 0 0 1 0.016,0.108 v 1.368 a 0.494,0.494 0 0 1 -0.016,0.111 0.658,0.658 0 0 1 -0.033,0.105 L 33.04,34 a 0.557,0.557 0 0 1 -0.1,0.033 0.5,0.5 0 0 1 -0.112,0.015 H 31.6 a 0.113,0.113 0 0 0 -0.081,0.03 0.1,0.1 0 0 0 -0.034,0.078 v 0.984 a 0.1,0.1 0 0 1 -0.114,0.114 H 30.543 A 0.1,0.1 0 0 1 30.43,35.14 v -3.976 a 0.109,0.109 0 0 1 0.032,-0.081 0.114,0.114 0 0 1 0.081,-0.033 h 2.28 a 0.5,0.5 0 0 1 0.112,0.015 0.642,0.642 0 0 1 0.1,0.033 z M 32.62,33.066 V 32 h -1.176 v 1.062 z"
     class="a" />
  <path
     inkscape:connector-curvature="0"
     id="path364"
     d="m 38.354,33.426 a 0.5,0.5 0 0 1 0.014,0.108 v 0.906 a 0.5,0.5 0 0 1 -0.014,0.108 0.808,0.808 0 0 1 -0.034,0.1 L 37.769,35.2 a 0.356,0.356 0 0 1 -0.106,0.036 0.6,0.6 0 0 1 -0.11,0.012 H 35.272 A 0.1,0.1 0 0 1 35.158,35.134 V 34.41 a 0.113,0.113 0 0 1 0.114,-0.114 h 2.04 a 0.118,0.118 0 0 0 0.082,-0.03 0.1,0.1 0 0 0 0.033,-0.078 v -0.5 a 0.114,0.114 0 0 0 -0.033,-0.081 0.112,0.112 0 0 0 -0.082,-0.033 h -1.343 a 0.566,0.566 0 0 1 -0.109,-0.012 0.52,0.52 0 0 1 -0.1,-0.03 L 35.208,32.98 A 0.472,0.472 0 0 1 35.172,32.872 0.556,0.556 0 0 1 35.16,32.764 V 31.86 a 0.556,0.556 0 0 1 0.012,-0.108 0.369,0.369 0 0 1 0.036,-0.1 L 35.76,31.1 a 0.682,0.682 0 0 1 0.1,-0.033 0.458,0.458 0 0 1 0.109,-0.015 h 2.153 a 0.112,0.112 0 0 1 0.081,0.033 0.106,0.106 0 0 1 0.033,0.081 V 31.9 a 0.106,0.106 0 0 1 -0.033,0.081 0.109,0.109 0 0 1 -0.081,0.033 h -1.914 a 0.116,0.116 0 0 0 -0.081,0.03 0.1,0.1 0 0 0 -0.032,0.078 v 0.486 a 0.111,0.111 0 0 0 0.113,0.114 h 1.345 a 0.7,0.7 0 0 1 0.11,0.012 0.546,0.546 0 0 1 0.106,0.03 l 0.551,0.552 c 0.012,0.034 0.023,0.07 0.034,0.11 z"
     class="a" />
  <path
     inkscape:connector-curvature="0"
     id="path366"
     d="m 22.968,108.24 0.735,0.993 -1.281,1.809 c -0.184,0.255 -0.394,0.507 -0.409,0.526 l 0.008,0.01 c 0.022,-0.01 0.333,-0.135 0.623,-0.237 l 2.085,-0.723 0.685,0.926 -4.1,1.182 -0.642,-0.869 z"
     class="a" />
  <path
     inkscape:connector-curvature="0"
     id="path368"
     d="m 25.774,111.938 1.652,1.888 -0.7,0.612 -0.909,-1.038 -0.452,0.395 0.8,0.917 -0.65,0.569 -0.8,-0.917 -0.506,0.443 0.937,1.07 -0.7,0.613 -1.679,-1.92 z"
     class="a" />
  <path
     inkscape:connector-curvature="0"
     id="path370"
     d="m 27.994,114.467 0.834,0.8 -0.3,1.885 a 7.852,7.852 0 0 1 -0.179,0.852 l 0.008,0.009 c 0.017,-0.027 0.246,-0.289 0.466,-0.518 l 1.116,-1.157 0.744,0.716 -2.775,2.876 -0.752,-0.725 0.316,-2.089 a 7.011,7.011 0 0 1 0.146,-0.783 l -0.009,-0.009 c -0.024,0.026 -0.2,0.233 -0.407,0.449 l -1.237,1.283 -0.743,-0.717 z"
     class="a" />
  <path
     inkscape:connector-curvature="0"
     id="path372"
     d="m 31.446,117.691 0.885,0.739 -2.56,3.069 -0.885,-0.738 z"
     class="a" />
  <path
     inkscape:connector-curvature="0"
     id="path374"
     d="m 33.339,119.281 0.911,0.645 -0.766,2.236 c -0.087,0.247 -0.232,0.6 -0.242,0.622 l 0.01,0.007 c 0.019,-0.016 0.308,-0.268 0.517,-0.429 l 1.882,-1.445 0.911,0.644 -1.856,3.581 -0.955,-0.676 0.786,-1.435 c 0.145,-0.265 0.269,-0.493 0.293,-0.527 l -0.01,-0.008 c -0.029,0.031 -0.235,0.209 -0.459,0.389 l -1.326,1.075 -0.926,-0.654 0.578,-1.6 c 0.089,-0.239 0.207,-0.53 0.223,-0.563 l -0.01,-0.007 c -0.024,0.034 -0.213,0.268 -0.385,0.462 l -1.106,1.21 -0.833,-0.589 z"
     class="a" />
  <path
     inkscape:connector-curvature="0"
     id="path376"
     d="m 36.283,124.21 1.182,-2.1 1,0.563 -1.143,2.03 c -0.276,0.492 -0.254,0.794 0.217,1.06 0.43,0.241 0.712,0.083 0.965,-0.368 l 1.154,-2.051 0.916,0.515 -1.122,1.994 a 1.572,1.572 0 0 1 -2.387,0.7 c -1.053,-0.587 -1.336,-1.36 -0.782,-2.343 z"
     class="a" />
  <path
     inkscape:connector-curvature="0"
     id="path378"
     d="m 39.532,127.455 0.741,-0.53 a 1.571,1.571 0 0 0 0.63,0.582 c 0.3,0.141 0.493,0.108 0.571,-0.061 0.1,-0.228 -0.246,-0.411 -0.577,-0.828 a 1.257,1.257 0 0 1 -0.2,-1.462 1.239,1.239 0 0 1 1.754,-0.492 2.034,2.034 0 0 1 1,0.845 l -0.718,0.541 a 1.735,1.735 0 0 0 -0.581,-0.52 c -0.245,-0.113 -0.4,-0.1 -0.478,0.076 -0.1,0.218 0.165,0.387 0.477,0.744 a 1.234,1.234 0 0 1 0.349,1.49 c -0.338,0.729 -1.043,0.926 -1.931,0.515 a 2.212,2.212 0 0 1 -1.037,-0.9 z"
     class="a" />
  <path
     inkscape:connector-curvature="0"
     id="path380"
     d="m 42.459,129.894 c 0.257,-0.113 0.448,-0.206 0.534,-0.423 0.106,-0.268 -0.1,-0.439 0.031,-0.768 a 0.59,0.59 0 0 1 0.794,-0.313 0.634,0.634 0 0 1 0.328,0.889 2.361,2.361 0 0 1 -1.441,1.1 z"
     class="a" />
  <path
     inkscape:connector-curvature="0"
     id="path382"
     d="m 47.193,126.667 1.188,0.337 0.091,2.212 c 0.01,0.314 0,0.641 0,0.666 h 0.011 c 0.012,-0.022 0.181,-0.311 0.348,-0.569 l 1.207,-1.844 1.108,0.313 -2.518,3.437 -1.038,-0.294 z"
     class="a" />
  <path
     inkscape:connector-curvature="0"
     id="path384"
     d="m 51.77,127.887 1.127,0.234 -0.813,3.913 -1.128,-0.234 z"
     class="a" />
  <path
     inkscape:connector-curvature="0"
     id="path386"
     d="m 53.94,128.344 1.417,0.192 c 1.553,0.211 2.173,1.09 2.018,2.233 a 2.037,2.037 0 0 1 -2.592,1.726 l -1.381,-0.187 z m 1.054,3.264 c 0.7,0.095 1.075,-0.242 1.174,-0.967 a 0.921,0.921 0 0 0 -0.909,-1.2 l -0.3,-0.041 -0.294,2.166 z"
     class="a" />
  <path
     inkscape:connector-curvature="0"
     id="path388"
     d="m 58.423,128.878 1.148,0.073 -0.254,3.984 -1.148,-0.074 z"
     class="a" />
  <path
     inkscape:connector-curvature="0"
     id="path390"
     d="m 60.864,129.032 1.115,-0.02 0.707,2.255 c 0.076,0.251 0.167,0.621 0.172,0.645 h 0.013 c 0.005,-0.023 0.089,-0.4 0.162,-0.65 l 0.661,-2.28 1.116,-0.019 0.623,3.983 -1.17,0.022 -0.215,-1.622 c -0.041,-0.3 -0.075,-0.557 -0.076,-0.6 H 63.96 c -0.006,0.042 -0.066,0.308 -0.14,0.585 l -0.432,1.651 -1.134,0.02 -0.479,-1.629 c -0.07,-0.244 -0.147,-0.549 -0.154,-0.585 h -0.012 c 0,0.042 -0.012,0.343 -0.038,0.6 l -0.175,1.629 -1.019,0.018 z"
     class="a" />
  <path
     inkscape:connector-curvature="0"
     id="path392"
     d="m 66.13,131.272 -0.288,-2.386 1.137,-0.137 0.278,2.309 c 0.067,0.559 0.264,0.789 0.8,0.724 0.488,-0.058 0.622,-0.352 0.56,-0.864 l -0.281,-2.333 1.041,-0.125 0.273,2.268 a 1.568,1.568 0 0 1 -1.506,1.974 c -1.197,0.144 -1.879,-0.311 -2.014,-1.43 z"
     class="a" />
  <path
     inkscape:connector-curvature="0"
     id="path394"
     d="m 70.691,131.964 0.284,-0.865 a 1.569,1.569 0 0 0 0.851,0.1 c 0.329,-0.066 0.46,-0.2 0.424,-0.385 -0.051,-0.247 -0.441,-0.186 -0.953,-0.327 a 1.255,1.255 0 0 1 -1.028,-1.057 1.238,1.238 0 0 1 1.123,-1.433 2.029,2.029 0 0 1 1.3,0.091 l -0.259,0.86 a 1.734,1.734 0 0 0 -0.775,-0.076 c -0.264,0.054 -0.379,0.151 -0.34,0.344 0.048,0.235 0.362,0.215 0.823,0.317 0.563,0.124 1.021,0.3 1.162,0.993 0.159,0.788 -0.293,1.363 -1.251,1.557 a 2.22,2.22 0 0 1 -1.361,-0.119 z"
     class="a" />
  <path
     inkscape:connector-curvature="0"
     id="path396"
     d="m 74.512,132.2 a 0.845,0.845 0 0 0 0.178,-0.655 c -0.073,-0.278 -0.338,-0.295 -0.429,-0.637 a 0.589,0.589 0 0 1 0.453,-0.723 0.635,0.635 0 0 1 0.791,0.522 2.362,2.362 0 0 1 -0.5,1.742 z"
     class="a" />
  <path
     inkscape:connector-curvature="0"
     id="path398"
     d="m 76.416,126.787 1.16,-0.431 1.381,1.736 c 0.2,0.248 0.379,0.519 0.393,0.54 h 0.011 c 0,-0.024 -0.037,-0.358 -0.054,-0.665 l -0.115,-2.206 1.081,-0.4 v 4.269 l -1.013,0.377 z"
     class="a" />
  <path
     inkscape:connector-curvature="0"
     id="path400"
     d="m 81.737,127.331 -1.046,-2.166 1.032,-0.5 1.012,2.1 c 0.245,0.508 0.506,0.661 0.993,0.426 0.442,-0.213 0.473,-0.535 0.25,-1 l -1.024,-2.117 0.945,-0.457 1,2.058 a 1.57,1.57 0 0 1 -0.787,2.358 c -1.091,0.523 -1.884,0.314 -2.375,-0.702 z"
     class="a" />
  <path
     inkscape:connector-curvature="0"
     id="path402"
     d="m 84.717,123.159 0.993,-0.583 1.563,2.664 1.226,-0.719 0.459,0.781 -2.219,1.3 z"
     class="a" />
  <path
     inkscape:connector-curvature="0"
     id="path404"
     d="m 88.437,123.287 a 2.109,2.109 0 0 1 0.7,-3.014 2.281,2.281 0 0 1 1.3,-0.5 l 0.1,0.977 a 1.622,1.622 0 0 0 -0.88,0.3 0.977,0.977 0 0 0 -0.254,1.508 c 0.4,0.57 0.915,0.808 1.481,0.414 a 1.268,1.268 0 0 0 0.344,-0.344 l -0.3,-0.438 -0.526,0.368 -0.494,-0.708 1.415,-0.988 1.167,1.67 a 2.962,2.962 0 0 1 -1.066,1.185 2.025,2.025 0 0 1 -2.987,-0.43 z"
     class="a" />
  <path
     inkscape:connector-curvature="0"
     id="path406"
     d="m 91.056,118.927 0.9,-0.724 2.51,3.109 -0.9,0.724 z"
     class="a" />
  <path
     inkscape:connector-curvature="0"
     id="path408"
     d="m 92.988,117.364 0.809,-0.768 2.046,1.184 c 0.226,0.133 0.543,0.345 0.564,0.358 l 0.009,-0.008 c -0.013,-0.022 -0.2,-0.354 -0.32,-0.59 l -1.055,-2.127 0.809,-0.769 3.15,2.515 -0.848,0.807 -1.256,-1.051 c -0.232,-0.192 -0.432,-0.358 -0.461,-0.389 l -0.008,0.008 c 0.024,0.034 0.158,0.272 0.292,0.526 l 0.8,1.509 -0.822,0.782 -1.455,-0.877 c -0.218,-0.133 -0.48,-0.3 -0.51,-0.328 l -0.008,0.009 c 0.029,0.031 0.222,0.26 0.378,0.468 l 0.973,1.319 -0.739,0.7 z"
     class="a" />
  <path
     inkscape:connector-curvature="0"
     id="path410"
     d="m 98.368,115.455 -1.829,-1.566 0.746,-0.871 1.77,1.515 c 0.428,0.367 0.73,0.4 1.082,-0.008 0.32,-0.374 0.219,-0.681 -0.173,-1.017 l -1.788,-1.531 0.683,-0.8 1.739,1.488 a 1.573,1.573 0 0 1 0.225,2.479 1.547,1.547 0 0 1 -2.455,0.311 z"
     class="a" />
  <path
     inkscape:connector-curvature="0"
     id="path412"
     d="m 102.187,112.892 -0.375,-0.83 a 1.571,1.571 0 0 0 0.693,-0.5 c 0.2,-0.272 0.2,-0.461 0.051,-0.571 -0.2,-0.148 -0.452,0.161 -0.923,0.4 a 1.258,1.258 0 0 1 -1.474,-0.084 1.239,1.239 0 0 1 -0.141,-1.816 2.028,2.028 0 0 1 1.021,-0.814 l 0.391,0.809 a 1.754,1.754 0 0 0 -0.622,0.468 c -0.159,0.219 -0.178,0.367 -0.018,0.484 0.194,0.141 0.411,-0.086 0.82,-0.323 a 1.235,1.235 0 0 1 1.53,-0.053 c 0.649,0.472 0.705,1.2 0.131,1.993 a 2.213,2.213 0 0 1 -1.084,0.837 z"
     class="a" />
</svg>
